<mxfile host="app.diagrams.net" modified="2023-03-02T15:07:14.746Z" agent="5.0 (Macintosh; Intel Mac OS X 10_15_7) AppleWebKit/537.36 (KHTML, like Gecko) Chrome/110.0.0.0 Safari/537.36" etag="5cT8dx9xdruTsWrmhxh6" version="20.8.21" type="github">
  <diagram name="第 1 页" id="xcLtO7XaCeu1rpA9z8i8">
    <mxGraphModel dx="1434" dy="770" grid="0" gridSize="10" guides="1" tooltips="1" connect="1" arrows="1" fold="1" page="1" pageScale="1" pageWidth="827" pageHeight="1169" background="none" math="0" shadow="0">
      <root>
        <mxCell id="0" />
        <mxCell id="1" parent="0" />
        <mxCell id="Xw4TS9QuK_xohdVHydM4-1" value="山海经" style="rounded=1;whiteSpace=wrap;sketch=1;hachureGap=4;jiggle=2;curveFitting=1;fontFamily=Ma Shan Zheng;fontSource=https%3A%2F%2Ffonts.googleapis.com%2Fcss%3Ffamily%3DMa%2BShan%2BZheng;fontSize=210;aspect=fixed;fillColor=#fff2cc;strokeColor=default;labelBorderColor=none;fillStyle=auto;gradientColor=#C892A2;glass=0;textOpacity=10;" parent="1" vertex="1">
          <mxGeometry x="59" y="69" width="730" height="410" as="geometry" />
        </mxCell>
        <mxCell id="nUT3khsGeMdMuA17AA8O-20" value="" style="rounded=0;whiteSpace=wrap;html=1;sketch=1;hachureGap=4;jiggle=2;curveFitting=1;fontFamily=Architects Daughter;fontSource=https%3A%2F%2Ffonts.googleapis.com%2Fcss%3Ffamily%3DArchitects%2BDaughter;fontSize=20;fillColor=none;movable=0;resizable=0;rotatable=0;deletable=0;editable=0;locked=1;connectable=0;" parent="1" vertex="1">
          <mxGeometry x="179" y="674" width="531" height="623" as="geometry" />
        </mxCell>
        <mxCell id="nUT3khsGeMdMuA17AA8O-151" value="" style="group;fontFamily=Ma Shan Zheng;fontSource=https%3A%2F%2Ffonts.googleapis.com%2Fcss%3Ffamily%3DMa%2BShan%2BZheng;" parent="1" vertex="1" connectable="0">
          <mxGeometry x="875" y="5" width="533" height="1045" as="geometry" />
        </mxCell>
        <mxCell id="nUT3khsGeMdMuA17AA8O-96" value="" style="group;fontFamily=Ma Shan Zheng;fontSource=https%3A%2F%2Ffonts.googleapis.com%2Fcss%3Ffamily%3DMa%2BShan%2BZheng;" parent="nUT3khsGeMdMuA17AA8O-151" vertex="1" connectable="0">
          <mxGeometry width="533" height="620" as="geometry" />
        </mxCell>
        <mxCell id="nUT3khsGeMdMuA17AA8O-21" value="兽榜" style="rounded=1;whiteSpace=wrap;html=1;sketch=1;hachureGap=4;jiggle=2;curveFitting=1;fontFamily=Ma Shan Zheng;fontSource=https%3A%2F%2Ffonts.googleapis.com%2Fcss%3Ffamily%3DMa%2BShan%2BZheng;fontSize=29;container=0;fontStyle=1" parent="nUT3khsGeMdMuA17AA8O-96" vertex="1">
          <mxGeometry x="3" width="527" height="51" as="geometry" />
        </mxCell>
        <mxCell id="nUT3khsGeMdMuA17AA8O-22" value="名" style="rounded=0;whiteSpace=wrap;html=1;sketch=1;hachureGap=4;jiggle=2;curveFitting=1;fontFamily=Ma Shan Zheng;fontSource=https%3A%2F%2Ffonts.googleapis.com%2Fcss%3Ffamily%3DMa%2BShan%2BZheng;fontSize=29;container=0;fontStyle=1" parent="nUT3khsGeMdMuA17AA8O-96" vertex="1">
          <mxGeometry x="3" y="51" width="157" height="44" as="geometry" />
        </mxCell>
        <mxCell id="nUT3khsGeMdMuA17AA8O-23" value="&lt;font data-font-src=&quot;https://fonts.googleapis.com/css?family=Ma+Shan+Zheng&quot; style=&quot;font-size: 29px;&quot;&gt;色&lt;/font&gt;" style="rounded=0;whiteSpace=wrap;html=1;sketch=1;hachureGap=4;jiggle=2;curveFitting=1;fontFamily=Ma Shan Zheng;fontSource=https%3A%2F%2Ffonts.googleapis.com%2Fcss%3Ffamily%3DMa%2BShan%2BZheng;fontSize=29;container=0;fontStyle=1" parent="nUT3khsGeMdMuA17AA8O-96" vertex="1">
          <mxGeometry x="160" y="51" width="71" height="47" as="geometry" />
        </mxCell>
        <mxCell id="nUT3khsGeMdMuA17AA8O-24" value="&lt;font data-font-src=&quot;https://fonts.googleapis.com/css?family=Ma+Shan+Zheng&quot; style=&quot;font-size: 29px;&quot;&gt;食&lt;/font&gt;" style="rounded=0;whiteSpace=wrap;html=1;sketch=1;hachureGap=4;jiggle=2;curveFitting=1;fontFamily=Ma Shan Zheng;fontSource=https%3A%2F%2Ffonts.googleapis.com%2Fcss%3Ffamily%3DMa%2BShan%2BZheng;fontSize=29;container=0;fontStyle=1" parent="nUT3khsGeMdMuA17AA8O-96" vertex="1">
          <mxGeometry x="231" y="51" width="71" height="47" as="geometry" />
        </mxCell>
        <mxCell id="nUT3khsGeMdMuA17AA8O-25" value="&lt;font data-font-src=&quot;https://fonts.googleapis.com/css?family=Ma+Shan+Zheng&quot; style=&quot;font-size: 29px;&quot;&gt;精&lt;/font&gt;" style="rounded=0;whiteSpace=wrap;html=1;sketch=1;hachureGap=4;jiggle=2;curveFitting=1;fontFamily=Ma Shan Zheng;fontSource=https%3A%2F%2Ffonts.googleapis.com%2Fcss%3Ffamily%3DMa%2BShan%2BZheng;fontSize=29;container=0;fontStyle=1" parent="nUT3khsGeMdMuA17AA8O-96" vertex="1">
          <mxGeometry x="302" y="51" width="71" height="47" as="geometry" />
        </mxCell>
        <mxCell id="nUT3khsGeMdMuA17AA8O-26" value="&lt;font data-font-src=&quot;https://fonts.googleapis.com/css?family=Ma+Shan+Zheng&quot; style=&quot;font-size: 29px;&quot;&gt;计&lt;/font&gt;" style="rounded=0;whiteSpace=wrap;html=1;sketch=1;hachureGap=4;jiggle=2;curveFitting=1;fontFamily=Ma Shan Zheng;fontSource=https%3A%2F%2Ffonts.googleapis.com%2Fcss%3Ffamily%3DMa%2BShan%2BZheng;fontSize=29;container=0;fontStyle=1" parent="nUT3khsGeMdMuA17AA8O-96" vertex="1">
          <mxGeometry x="373" y="51" width="97" height="47" as="geometry" />
        </mxCell>
        <mxCell id="nUT3khsGeMdMuA17AA8O-27" value="排行" style="rounded=0;whiteSpace=wrap;html=1;sketch=1;hachureGap=4;jiggle=2;curveFitting=1;fontFamily=Ma Shan Zheng;fontSource=https%3A%2F%2Ffonts.googleapis.com%2Fcss%3Ffamily%3DMa%2BShan%2BZheng;fontSize=29;container=0;fontStyle=1" parent="nUT3khsGeMdMuA17AA8O-96" vertex="1">
          <mxGeometry x="470" y="51" width="61" height="47" as="geometry" />
        </mxCell>
        <mxCell id="nUT3khsGeMdMuA17AA8O-28" value="&lt;div class=&quot;lake-content&quot;&gt;&lt;font data-font-src=&quot;https://fonts.googleapis.com/css?family=Ma+Shan+Zheng&quot;&gt;狌狌&lt;/font&gt;&lt;/div&gt;" style="rounded=0;whiteSpace=wrap;html=1;sketch=1;hachureGap=4;jiggle=2;curveFitting=1;fontFamily=Ma Shan Zheng;fontSource=https%3A%2F%2Ffonts.googleapis.com%2Fcss%3Ffamily%3DMa%2BShan%2BZheng;fontSize=20;container=0;fillColor=#f8cecc;strokeColor=#b85450;" parent="nUT3khsGeMdMuA17AA8O-96" vertex="1">
          <mxGeometry x="3" y="98" width="158" height="47" as="geometry" />
        </mxCell>
        <mxCell id="nUT3khsGeMdMuA17AA8O-29" value="15" style="rounded=0;whiteSpace=wrap;html=1;sketch=1;hachureGap=4;jiggle=2;curveFitting=1;fontFamily=Ma Shan Zheng;fontSource=https%3A%2F%2Ffonts.googleapis.com%2Fcss%3Ffamily%3DMa%2BShan%2BZheng;fontSize=20;container=0;fillColor=#f8cecc;strokeColor=#b85450;" parent="nUT3khsGeMdMuA17AA8O-96" vertex="1">
          <mxGeometry x="162" y="98" width="71" height="47" as="geometry" />
        </mxCell>
        <mxCell id="nUT3khsGeMdMuA17AA8O-30" value="20" style="rounded=0;whiteSpace=wrap;html=1;sketch=1;hachureGap=4;jiggle=2;curveFitting=1;fontFamily=Ma Shan Zheng;fontSource=https%3A%2F%2Ffonts.googleapis.com%2Fcss%3Ffamily%3DMa%2BShan%2BZheng;fontSize=20;container=0;fillColor=#f8cecc;strokeColor=#b85450;" parent="nUT3khsGeMdMuA17AA8O-96" vertex="1">
          <mxGeometry x="233" y="98" width="71" height="47" as="geometry" />
        </mxCell>
        <mxCell id="nUT3khsGeMdMuA17AA8O-31" value="20" style="rounded=0;whiteSpace=wrap;html=1;sketch=1;hachureGap=4;jiggle=2;curveFitting=1;fontFamily=Ma Shan Zheng;fontSource=https%3A%2F%2Ffonts.googleapis.com%2Fcss%3Ffamily%3DMa%2BShan%2BZheng;fontSize=20;container=0;fillColor=#f8cecc;strokeColor=#b85450;" parent="nUT3khsGeMdMuA17AA8O-96" vertex="1">
          <mxGeometry x="304" y="98" width="71" height="47" as="geometry" />
        </mxCell>
        <mxCell id="nUT3khsGeMdMuA17AA8O-32" value="55" style="rounded=0;whiteSpace=wrap;html=1;sketch=1;hachureGap=4;jiggle=2;curveFitting=1;fontFamily=Ma Shan Zheng;fontSource=https%3A%2F%2Ffonts.googleapis.com%2Fcss%3Ffamily%3DMa%2BShan%2BZheng;fontSize=20;container=0;fillColor=#f8cecc;strokeColor=#b85450;" parent="nUT3khsGeMdMuA17AA8O-96" vertex="1">
          <mxGeometry x="375" y="98" width="97" height="47" as="geometry" />
        </mxCell>
        <mxCell id="nUT3khsGeMdMuA17AA8O-33" value="1" style="rounded=0;whiteSpace=wrap;html=1;sketch=1;hachureGap=4;jiggle=2;curveFitting=1;fontFamily=Ma Shan Zheng;fontSource=https%3A%2F%2Ffonts.googleapis.com%2Fcss%3Ffamily%3DMa%2BShan%2BZheng;fontSize=20;container=0;fillColor=#f8cecc;strokeColor=#b85450;" parent="nUT3khsGeMdMuA17AA8O-96" vertex="1">
          <mxGeometry x="471" y="96" width="61" height="47" as="geometry" />
        </mxCell>
        <mxCell id="nUT3khsGeMdMuA17AA8O-34" value="" style="rounded=0;whiteSpace=wrap;html=1;sketch=1;hachureGap=4;jiggle=2;curveFitting=1;fontFamily=Ma Shan Zheng;fontSource=https%3A%2F%2Ffonts.googleapis.com%2Fcss%3Ffamily%3DMa%2BShan%2BZheng;fontSize=20;container=0;fillColor=#f8cecc;strokeColor=#b85450;" parent="nUT3khsGeMdMuA17AA8O-96" vertex="1">
          <mxGeometry x="3" y="144" width="158" height="47" as="geometry" />
        </mxCell>
        <mxCell id="nUT3khsGeMdMuA17AA8O-35" value="" style="rounded=0;whiteSpace=wrap;html=1;sketch=1;hachureGap=4;jiggle=2;curveFitting=1;fontFamily=Ma Shan Zheng;fontSource=https%3A%2F%2Ffonts.googleapis.com%2Fcss%3Ffamily%3DMa%2BShan%2BZheng;fontSize=20;container=0;fillColor=#f8cecc;strokeColor=#b85450;" parent="nUT3khsGeMdMuA17AA8O-96" vertex="1">
          <mxGeometry x="162" y="144" width="71" height="47" as="geometry" />
        </mxCell>
        <mxCell id="nUT3khsGeMdMuA17AA8O-36" value="" style="rounded=0;whiteSpace=wrap;html=1;sketch=1;hachureGap=4;jiggle=2;curveFitting=1;fontFamily=Ma Shan Zheng;fontSource=https%3A%2F%2Ffonts.googleapis.com%2Fcss%3Ffamily%3DMa%2BShan%2BZheng;fontSize=20;container=0;fillColor=#f8cecc;strokeColor=#b85450;" parent="nUT3khsGeMdMuA17AA8O-96" vertex="1">
          <mxGeometry x="233" y="144" width="71" height="47" as="geometry" />
        </mxCell>
        <mxCell id="nUT3khsGeMdMuA17AA8O-37" value="" style="rounded=0;whiteSpace=wrap;html=1;sketch=1;hachureGap=4;jiggle=2;curveFitting=1;fontFamily=Ma Shan Zheng;fontSource=https%3A%2F%2Ffonts.googleapis.com%2Fcss%3Ffamily%3DMa%2BShan%2BZheng;fontSize=20;container=0;fillColor=#f8cecc;strokeColor=#b85450;" parent="nUT3khsGeMdMuA17AA8O-96" vertex="1">
          <mxGeometry x="304" y="144" width="71" height="47" as="geometry" />
        </mxCell>
        <mxCell id="nUT3khsGeMdMuA17AA8O-38" value="" style="rounded=0;whiteSpace=wrap;html=1;sketch=1;hachureGap=4;jiggle=2;curveFitting=1;fontFamily=Ma Shan Zheng;fontSource=https%3A%2F%2Ffonts.googleapis.com%2Fcss%3Ffamily%3DMa%2BShan%2BZheng;fontSize=20;container=0;fillColor=#f8cecc;strokeColor=#b85450;" parent="nUT3khsGeMdMuA17AA8O-96" vertex="1">
          <mxGeometry x="375" y="144" width="97" height="47" as="geometry" />
        </mxCell>
        <mxCell id="nUT3khsGeMdMuA17AA8O-39" value="2" style="rounded=0;whiteSpace=wrap;html=1;sketch=1;hachureGap=4;jiggle=2;curveFitting=1;fontFamily=Ma Shan Zheng;fontSource=https%3A%2F%2Ffonts.googleapis.com%2Fcss%3Ffamily%3DMa%2BShan%2BZheng;fontSize=20;container=0;fillColor=#f8cecc;strokeColor=#b85450;" parent="nUT3khsGeMdMuA17AA8O-96" vertex="1">
          <mxGeometry x="472" y="144" width="61" height="47" as="geometry" />
        </mxCell>
        <mxCell id="nUT3khsGeMdMuA17AA8O-40" value="" style="rounded=0;whiteSpace=wrap;html=1;sketch=1;hachureGap=4;jiggle=2;curveFitting=1;fontFamily=Ma Shan Zheng;fontSource=https%3A%2F%2Ffonts.googleapis.com%2Fcss%3Ffamily%3DMa%2BShan%2BZheng;fontSize=20;container=0;fillColor=#f8cecc;strokeColor=#b85450;" parent="nUT3khsGeMdMuA17AA8O-96" vertex="1">
          <mxGeometry x="3" y="191" width="158" height="47" as="geometry" />
        </mxCell>
        <mxCell id="nUT3khsGeMdMuA17AA8O-41" value="" style="rounded=0;whiteSpace=wrap;html=1;sketch=1;hachureGap=4;jiggle=2;curveFitting=1;fontFamily=Ma Shan Zheng;fontSource=https%3A%2F%2Ffonts.googleapis.com%2Fcss%3Ffamily%3DMa%2BShan%2BZheng;fontSize=20;container=0;fillColor=#f8cecc;strokeColor=#b85450;" parent="nUT3khsGeMdMuA17AA8O-96" vertex="1">
          <mxGeometry x="162" y="191" width="71" height="47" as="geometry" />
        </mxCell>
        <mxCell id="nUT3khsGeMdMuA17AA8O-42" value="" style="rounded=0;whiteSpace=wrap;html=1;sketch=1;hachureGap=4;jiggle=2;curveFitting=1;fontFamily=Ma Shan Zheng;fontSource=https%3A%2F%2Ffonts.googleapis.com%2Fcss%3Ffamily%3DMa%2BShan%2BZheng;fontSize=20;container=0;fillColor=#f8cecc;strokeColor=#b85450;" parent="nUT3khsGeMdMuA17AA8O-96" vertex="1">
          <mxGeometry x="233" y="191" width="71" height="47" as="geometry" />
        </mxCell>
        <mxCell id="nUT3khsGeMdMuA17AA8O-43" value="" style="rounded=0;whiteSpace=wrap;html=1;sketch=1;hachureGap=4;jiggle=2;curveFitting=1;fontFamily=Ma Shan Zheng;fontSource=https%3A%2F%2Ffonts.googleapis.com%2Fcss%3Ffamily%3DMa%2BShan%2BZheng;fontSize=20;container=0;fillColor=#f8cecc;strokeColor=#b85450;" parent="nUT3khsGeMdMuA17AA8O-96" vertex="1">
          <mxGeometry x="304" y="191" width="71" height="47" as="geometry" />
        </mxCell>
        <mxCell id="nUT3khsGeMdMuA17AA8O-44" value="" style="rounded=0;whiteSpace=wrap;html=1;sketch=1;hachureGap=4;jiggle=2;curveFitting=1;fontFamily=Ma Shan Zheng;fontSource=https%3A%2F%2Ffonts.googleapis.com%2Fcss%3Ffamily%3DMa%2BShan%2BZheng;fontSize=20;container=0;fillColor=#f8cecc;strokeColor=#b85450;" parent="nUT3khsGeMdMuA17AA8O-96" vertex="1">
          <mxGeometry x="375" y="191" width="97" height="47" as="geometry" />
        </mxCell>
        <mxCell id="nUT3khsGeMdMuA17AA8O-45" value="3" style="rounded=0;whiteSpace=wrap;html=1;sketch=1;hachureGap=4;jiggle=2;curveFitting=1;fontFamily=Ma Shan Zheng;fontSource=https%3A%2F%2Ffonts.googleapis.com%2Fcss%3Ffamily%3DMa%2BShan%2BZheng;fontSize=20;container=0;fillColor=#f8cecc;strokeColor=#b85450;" parent="nUT3khsGeMdMuA17AA8O-96" vertex="1">
          <mxGeometry x="472" y="191" width="61" height="47" as="geometry" />
        </mxCell>
        <mxCell id="nUT3khsGeMdMuA17AA8O-46" value="" style="rounded=0;whiteSpace=wrap;html=1;sketch=1;hachureGap=4;jiggle=2;curveFitting=1;fontFamily=Ma Shan Zheng;fontSource=https%3A%2F%2Ffonts.googleapis.com%2Fcss%3Ffamily%3DMa%2BShan%2BZheng;fontSize=20;container=0;fillColor=#d5e8d4;strokeColor=#82b366;" parent="nUT3khsGeMdMuA17AA8O-96" vertex="1">
          <mxGeometry x="1" y="238" width="158" height="47" as="geometry" />
        </mxCell>
        <mxCell id="nUT3khsGeMdMuA17AA8O-47" value="" style="rounded=0;whiteSpace=wrap;html=1;sketch=1;hachureGap=4;jiggle=2;curveFitting=1;fontFamily=Ma Shan Zheng;fontSource=https%3A%2F%2Ffonts.googleapis.com%2Fcss%3Ffamily%3DMa%2BShan%2BZheng;fontSize=20;container=0;fillColor=#d5e8d4;strokeColor=#82b366;" parent="nUT3khsGeMdMuA17AA8O-96" vertex="1">
          <mxGeometry x="160" y="238" width="71" height="47" as="geometry" />
        </mxCell>
        <mxCell id="nUT3khsGeMdMuA17AA8O-48" value="" style="rounded=0;whiteSpace=wrap;html=1;sketch=1;hachureGap=4;jiggle=2;curveFitting=1;fontFamily=Ma Shan Zheng;fontSource=https%3A%2F%2Ffonts.googleapis.com%2Fcss%3Ffamily%3DMa%2BShan%2BZheng;fontSize=20;container=0;fillColor=#d5e8d4;strokeColor=#82b366;" parent="nUT3khsGeMdMuA17AA8O-96" vertex="1">
          <mxGeometry x="231" y="238" width="71" height="47" as="geometry" />
        </mxCell>
        <mxCell id="nUT3khsGeMdMuA17AA8O-49" value="" style="rounded=0;whiteSpace=wrap;html=1;sketch=1;hachureGap=4;jiggle=2;curveFitting=1;fontFamily=Ma Shan Zheng;fontSource=https%3A%2F%2Ffonts.googleapis.com%2Fcss%3Ffamily%3DMa%2BShan%2BZheng;fontSize=20;container=0;fillColor=#d5e8d4;strokeColor=#82b366;" parent="nUT3khsGeMdMuA17AA8O-96" vertex="1">
          <mxGeometry x="302" y="238" width="71" height="47" as="geometry" />
        </mxCell>
        <mxCell id="nUT3khsGeMdMuA17AA8O-50" value="" style="rounded=0;whiteSpace=wrap;html=1;sketch=1;hachureGap=4;jiggle=2;curveFitting=1;fontFamily=Ma Shan Zheng;fontSource=https%3A%2F%2Ffonts.googleapis.com%2Fcss%3Ffamily%3DMa%2BShan%2BZheng;fontSize=20;container=0;fillColor=#d5e8d4;strokeColor=#82b366;" parent="nUT3khsGeMdMuA17AA8O-96" vertex="1">
          <mxGeometry x="373" y="238" width="97" height="47" as="geometry" />
        </mxCell>
        <mxCell id="nUT3khsGeMdMuA17AA8O-51" value="4" style="rounded=0;whiteSpace=wrap;html=1;sketch=1;hachureGap=4;jiggle=2;curveFitting=1;fontFamily=Ma Shan Zheng;fontSource=https%3A%2F%2Ffonts.googleapis.com%2Fcss%3Ffamily%3DMa%2BShan%2BZheng;fontSize=20;container=0;fillColor=#d5e8d4;strokeColor=#82b366;" parent="nUT3khsGeMdMuA17AA8O-96" vertex="1">
          <mxGeometry x="470" y="238" width="61" height="47" as="geometry" />
        </mxCell>
        <mxCell id="nUT3khsGeMdMuA17AA8O-52" value="" style="rounded=0;whiteSpace=wrap;html=1;sketch=1;hachureGap=4;jiggle=2;curveFitting=1;fontFamily=Ma Shan Zheng;fontSource=https%3A%2F%2Ffonts.googleapis.com%2Fcss%3Ffamily%3DMa%2BShan%2BZheng;fontSize=20;container=0;fillColor=#d5e8d4;strokeColor=#82b366;" parent="nUT3khsGeMdMuA17AA8O-96" vertex="1">
          <mxGeometry x="2" y="286" width="158" height="47" as="geometry" />
        </mxCell>
        <mxCell id="nUT3khsGeMdMuA17AA8O-53" value="" style="rounded=0;whiteSpace=wrap;html=1;sketch=1;hachureGap=4;jiggle=2;curveFitting=1;fontFamily=Ma Shan Zheng;fontSource=https%3A%2F%2Ffonts.googleapis.com%2Fcss%3Ffamily%3DMa%2BShan%2BZheng;fontSize=20;container=0;fillColor=#d5e8d4;strokeColor=#82b366;" parent="nUT3khsGeMdMuA17AA8O-96" vertex="1">
          <mxGeometry x="161" y="286" width="71" height="47" as="geometry" />
        </mxCell>
        <mxCell id="nUT3khsGeMdMuA17AA8O-54" value="" style="rounded=0;whiteSpace=wrap;html=1;sketch=1;hachureGap=4;jiggle=2;curveFitting=1;fontFamily=Ma Shan Zheng;fontSource=https%3A%2F%2Ffonts.googleapis.com%2Fcss%3Ffamily%3DMa%2BShan%2BZheng;fontSize=20;container=0;fillColor=#d5e8d4;strokeColor=#82b366;" parent="nUT3khsGeMdMuA17AA8O-96" vertex="1">
          <mxGeometry x="232" y="286" width="71" height="47" as="geometry" />
        </mxCell>
        <mxCell id="nUT3khsGeMdMuA17AA8O-55" value="" style="rounded=0;whiteSpace=wrap;html=1;sketch=1;hachureGap=4;jiggle=2;curveFitting=1;fontFamily=Ma Shan Zheng;fontSource=https%3A%2F%2Ffonts.googleapis.com%2Fcss%3Ffamily%3DMa%2BShan%2BZheng;fontSize=20;container=0;fillColor=#d5e8d4;strokeColor=#82b366;" parent="nUT3khsGeMdMuA17AA8O-96" vertex="1">
          <mxGeometry x="303" y="286" width="71" height="47" as="geometry" />
        </mxCell>
        <mxCell id="nUT3khsGeMdMuA17AA8O-56" value="" style="rounded=0;whiteSpace=wrap;html=1;sketch=1;hachureGap=4;jiggle=2;curveFitting=1;fontFamily=Ma Shan Zheng;fontSource=https%3A%2F%2Ffonts.googleapis.com%2Fcss%3Ffamily%3DMa%2BShan%2BZheng;fontSize=20;container=0;fillColor=#d5e8d4;strokeColor=#82b366;" parent="nUT3khsGeMdMuA17AA8O-96" vertex="1">
          <mxGeometry x="374" y="286" width="97" height="47" as="geometry" />
        </mxCell>
        <mxCell id="nUT3khsGeMdMuA17AA8O-57" value="5" style="rounded=0;whiteSpace=wrap;html=1;sketch=1;hachureGap=4;jiggle=2;curveFitting=1;fontFamily=Ma Shan Zheng;fontSource=https%3A%2F%2Ffonts.googleapis.com%2Fcss%3Ffamily%3DMa%2BShan%2BZheng;fontSize=20;container=0;fillColor=#d5e8d4;strokeColor=#82b366;" parent="nUT3khsGeMdMuA17AA8O-96" vertex="1">
          <mxGeometry x="471" y="286" width="61" height="47" as="geometry" />
        </mxCell>
        <mxCell id="nUT3khsGeMdMuA17AA8O-58" value="" style="rounded=0;whiteSpace=wrap;html=1;sketch=1;hachureGap=4;jiggle=2;curveFitting=1;fontFamily=Ma Shan Zheng;fontSource=https%3A%2F%2Ffonts.googleapis.com%2Fcss%3Ffamily%3DMa%2BShan%2BZheng;fontSize=20;container=0;fillColor=#d5e8d4;strokeColor=#82b366;" parent="nUT3khsGeMdMuA17AA8O-96" vertex="1">
          <mxGeometry x="2" y="333" width="158" height="47" as="geometry" />
        </mxCell>
        <mxCell id="nUT3khsGeMdMuA17AA8O-59" value="" style="rounded=0;whiteSpace=wrap;html=1;sketch=1;hachureGap=4;jiggle=2;curveFitting=1;fontFamily=Ma Shan Zheng;fontSource=https%3A%2F%2Ffonts.googleapis.com%2Fcss%3Ffamily%3DMa%2BShan%2BZheng;fontSize=20;container=0;fillColor=#d5e8d4;strokeColor=#82b366;" parent="nUT3khsGeMdMuA17AA8O-96" vertex="1">
          <mxGeometry x="161" y="333" width="71" height="47" as="geometry" />
        </mxCell>
        <mxCell id="nUT3khsGeMdMuA17AA8O-60" value="" style="rounded=0;whiteSpace=wrap;html=1;sketch=1;hachureGap=4;jiggle=2;curveFitting=1;fontFamily=Ma Shan Zheng;fontSource=https%3A%2F%2Ffonts.googleapis.com%2Fcss%3Ffamily%3DMa%2BShan%2BZheng;fontSize=20;container=0;fillColor=#d5e8d4;strokeColor=#82b366;" parent="nUT3khsGeMdMuA17AA8O-96" vertex="1">
          <mxGeometry x="232" y="333" width="71" height="47" as="geometry" />
        </mxCell>
        <mxCell id="nUT3khsGeMdMuA17AA8O-61" value="" style="rounded=0;whiteSpace=wrap;html=1;sketch=1;hachureGap=4;jiggle=2;curveFitting=1;fontFamily=Ma Shan Zheng;fontSource=https%3A%2F%2Ffonts.googleapis.com%2Fcss%3Ffamily%3DMa%2BShan%2BZheng;fontSize=20;container=0;fillColor=#d5e8d4;strokeColor=#82b366;" parent="nUT3khsGeMdMuA17AA8O-96" vertex="1">
          <mxGeometry x="303" y="333" width="71" height="47" as="geometry" />
        </mxCell>
        <mxCell id="nUT3khsGeMdMuA17AA8O-62" value="" style="rounded=0;whiteSpace=wrap;html=1;sketch=1;hachureGap=4;jiggle=2;curveFitting=1;fontFamily=Ma Shan Zheng;fontSource=https%3A%2F%2Ffonts.googleapis.com%2Fcss%3Ffamily%3DMa%2BShan%2BZheng;fontSize=20;container=0;fillColor=#d5e8d4;strokeColor=#82b366;" parent="nUT3khsGeMdMuA17AA8O-96" vertex="1">
          <mxGeometry x="374" y="333" width="97" height="47" as="geometry" />
        </mxCell>
        <mxCell id="nUT3khsGeMdMuA17AA8O-63" value="6" style="rounded=0;whiteSpace=wrap;html=1;sketch=1;hachureGap=4;jiggle=2;curveFitting=1;fontFamily=Ma Shan Zheng;fontSource=https%3A%2F%2Ffonts.googleapis.com%2Fcss%3Ffamily%3DMa%2BShan%2BZheng;fontSize=20;container=0;fillColor=#d5e8d4;strokeColor=#82b366;" parent="nUT3khsGeMdMuA17AA8O-96" vertex="1">
          <mxGeometry x="471" y="333" width="61" height="47" as="geometry" />
        </mxCell>
        <mxCell id="nUT3khsGeMdMuA17AA8O-64" value="" style="rounded=0;whiteSpace=wrap;html=1;sketch=1;hachureGap=4;jiggle=2;curveFitting=1;fontFamily=Ma Shan Zheng;fontSource=https%3A%2F%2Ffonts.googleapis.com%2Fcss%3Ffamily%3DMa%2BShan%2BZheng;fontSize=20;container=0;fillColor=#d5e8d4;strokeColor=#82b366;" parent="nUT3khsGeMdMuA17AA8O-96" vertex="1">
          <mxGeometry x="1" y="381" width="158" height="47" as="geometry" />
        </mxCell>
        <mxCell id="nUT3khsGeMdMuA17AA8O-65" value="" style="rounded=0;whiteSpace=wrap;html=1;sketch=1;hachureGap=4;jiggle=2;curveFitting=1;fontFamily=Ma Shan Zheng;fontSource=https%3A%2F%2Ffonts.googleapis.com%2Fcss%3Ffamily%3DMa%2BShan%2BZheng;fontSize=20;container=0;fillColor=#d5e8d4;strokeColor=#82b366;" parent="nUT3khsGeMdMuA17AA8O-96" vertex="1">
          <mxGeometry x="160" y="381" width="71" height="47" as="geometry" />
        </mxCell>
        <mxCell id="nUT3khsGeMdMuA17AA8O-66" value="" style="rounded=0;whiteSpace=wrap;html=1;sketch=1;hachureGap=4;jiggle=2;curveFitting=1;fontFamily=Ma Shan Zheng;fontSource=https%3A%2F%2Ffonts.googleapis.com%2Fcss%3Ffamily%3DMa%2BShan%2BZheng;fontSize=20;container=0;fillColor=#d5e8d4;strokeColor=#82b366;" parent="nUT3khsGeMdMuA17AA8O-96" vertex="1">
          <mxGeometry x="231" y="381" width="71" height="47" as="geometry" />
        </mxCell>
        <mxCell id="nUT3khsGeMdMuA17AA8O-67" value="" style="rounded=0;whiteSpace=wrap;html=1;sketch=1;hachureGap=4;jiggle=2;curveFitting=1;fontFamily=Ma Shan Zheng;fontSource=https%3A%2F%2Ffonts.googleapis.com%2Fcss%3Ffamily%3DMa%2BShan%2BZheng;fontSize=20;container=0;fillColor=#d5e8d4;strokeColor=#82b366;" parent="nUT3khsGeMdMuA17AA8O-96" vertex="1">
          <mxGeometry x="302" y="381" width="71" height="47" as="geometry" />
        </mxCell>
        <mxCell id="nUT3khsGeMdMuA17AA8O-68" value="" style="rounded=0;whiteSpace=wrap;html=1;sketch=1;hachureGap=4;jiggle=2;curveFitting=1;fontFamily=Ma Shan Zheng;fontSource=https%3A%2F%2Ffonts.googleapis.com%2Fcss%3Ffamily%3DMa%2BShan%2BZheng;fontSize=20;container=0;fillColor=#d5e8d4;strokeColor=#82b366;" parent="nUT3khsGeMdMuA17AA8O-96" vertex="1">
          <mxGeometry x="375" y="381" width="97" height="47" as="geometry" />
        </mxCell>
        <mxCell id="nUT3khsGeMdMuA17AA8O-69" value="7" style="rounded=0;whiteSpace=wrap;html=1;sketch=1;hachureGap=4;jiggle=2;curveFitting=1;fontFamily=Ma Shan Zheng;fontSource=https%3A%2F%2Ffonts.googleapis.com%2Fcss%3Ffamily%3DMa%2BShan%2BZheng;fontSize=20;container=0;fillColor=#d5e8d4;strokeColor=#82b366;" parent="nUT3khsGeMdMuA17AA8O-96" vertex="1">
          <mxGeometry x="472" y="381" width="61" height="47" as="geometry" />
        </mxCell>
        <mxCell id="nUT3khsGeMdMuA17AA8O-70" value="" style="rounded=0;whiteSpace=wrap;html=1;sketch=1;hachureGap=4;jiggle=2;curveFitting=1;fontFamily=Ma Shan Zheng;fontSource=https%3A%2F%2Ffonts.googleapis.com%2Fcss%3Ffamily%3DMa%2BShan%2BZheng;fontSize=20;container=0;fillColor=#d5e8d4;strokeColor=#82b366;" parent="nUT3khsGeMdMuA17AA8O-96" vertex="1">
          <mxGeometry x="1" y="429" width="158" height="47" as="geometry" />
        </mxCell>
        <mxCell id="nUT3khsGeMdMuA17AA8O-71" value="" style="rounded=0;whiteSpace=wrap;html=1;sketch=1;hachureGap=4;jiggle=2;curveFitting=1;fontFamily=Ma Shan Zheng;fontSource=https%3A%2F%2Ffonts.googleapis.com%2Fcss%3Ffamily%3DMa%2BShan%2BZheng;fontSize=20;container=0;fillColor=#d5e8d4;strokeColor=#82b366;" parent="nUT3khsGeMdMuA17AA8O-96" vertex="1">
          <mxGeometry x="160" y="429" width="71" height="47" as="geometry" />
        </mxCell>
        <mxCell id="nUT3khsGeMdMuA17AA8O-72" value="" style="rounded=0;whiteSpace=wrap;html=1;sketch=1;hachureGap=4;jiggle=2;curveFitting=1;fontFamily=Ma Shan Zheng;fontSource=https%3A%2F%2Ffonts.googleapis.com%2Fcss%3Ffamily%3DMa%2BShan%2BZheng;fontSize=20;container=0;fillColor=#d5e8d4;strokeColor=#82b366;" parent="nUT3khsGeMdMuA17AA8O-96" vertex="1">
          <mxGeometry x="231" y="429" width="71" height="47" as="geometry" />
        </mxCell>
        <mxCell id="nUT3khsGeMdMuA17AA8O-73" value="" style="rounded=0;whiteSpace=wrap;html=1;sketch=1;hachureGap=4;jiggle=2;curveFitting=1;fontFamily=Ma Shan Zheng;fontSource=https%3A%2F%2Ffonts.googleapis.com%2Fcss%3Ffamily%3DMa%2BShan%2BZheng;fontSize=20;container=0;fillColor=#d5e8d4;strokeColor=#82b366;" parent="nUT3khsGeMdMuA17AA8O-96" vertex="1">
          <mxGeometry x="302" y="429" width="71" height="47" as="geometry" />
        </mxCell>
        <mxCell id="nUT3khsGeMdMuA17AA8O-74" value="" style="rounded=0;whiteSpace=wrap;html=1;sketch=1;hachureGap=4;jiggle=2;curveFitting=1;fontFamily=Ma Shan Zheng;fontSource=https%3A%2F%2Ffonts.googleapis.com%2Fcss%3Ffamily%3DMa%2BShan%2BZheng;fontSize=20;container=0;fillColor=#d5e8d4;strokeColor=#82b366;" parent="nUT3khsGeMdMuA17AA8O-96" vertex="1">
          <mxGeometry x="373" y="429" width="97" height="47" as="geometry" />
        </mxCell>
        <mxCell id="nUT3khsGeMdMuA17AA8O-75" value="8" style="rounded=0;whiteSpace=wrap;html=1;sketch=1;hachureGap=4;jiggle=2;curveFitting=1;fontFamily=Ma Shan Zheng;fontSource=https%3A%2F%2Ffonts.googleapis.com%2Fcss%3Ffamily%3DMa%2BShan%2BZheng;fontSize=20;container=0;fillColor=#d5e8d4;strokeColor=#82b366;" parent="nUT3khsGeMdMuA17AA8O-96" vertex="1">
          <mxGeometry x="470" y="429" width="61" height="47" as="geometry" />
        </mxCell>
        <mxCell id="nUT3khsGeMdMuA17AA8O-76" value="" style="rounded=0;whiteSpace=wrap;html=1;sketch=1;hachureGap=4;jiggle=2;curveFitting=1;fontFamily=Ma Shan Zheng;fontSource=https%3A%2F%2Ffonts.googleapis.com%2Fcss%3Ffamily%3DMa%2BShan%2BZheng;fontSize=20;container=0;fillColor=#d5e8d4;strokeColor=#82b366;" parent="nUT3khsGeMdMuA17AA8O-96" vertex="1">
          <mxGeometry x="2" y="477" width="158" height="47" as="geometry" />
        </mxCell>
        <mxCell id="nUT3khsGeMdMuA17AA8O-77" value="" style="rounded=0;whiteSpace=wrap;html=1;sketch=1;hachureGap=4;jiggle=2;curveFitting=1;fontFamily=Ma Shan Zheng;fontSource=https%3A%2F%2Ffonts.googleapis.com%2Fcss%3Ffamily%3DMa%2BShan%2BZheng;fontSize=20;container=0;fillColor=#d5e8d4;strokeColor=#82b366;" parent="nUT3khsGeMdMuA17AA8O-96" vertex="1">
          <mxGeometry x="161" y="477" width="71" height="47" as="geometry" />
        </mxCell>
        <mxCell id="nUT3khsGeMdMuA17AA8O-78" value="" style="rounded=0;whiteSpace=wrap;html=1;sketch=1;hachureGap=4;jiggle=2;curveFitting=1;fontFamily=Ma Shan Zheng;fontSource=https%3A%2F%2Ffonts.googleapis.com%2Fcss%3Ffamily%3DMa%2BShan%2BZheng;fontSize=20;container=0;fillColor=#d5e8d4;strokeColor=#82b366;" parent="nUT3khsGeMdMuA17AA8O-96" vertex="1">
          <mxGeometry x="232" y="477" width="71" height="47" as="geometry" />
        </mxCell>
        <mxCell id="nUT3khsGeMdMuA17AA8O-79" value="" style="rounded=0;whiteSpace=wrap;html=1;sketch=1;hachureGap=4;jiggle=2;curveFitting=1;fontFamily=Ma Shan Zheng;fontSource=https%3A%2F%2Ffonts.googleapis.com%2Fcss%3Ffamily%3DMa%2BShan%2BZheng;fontSize=20;container=0;fillColor=#d5e8d4;strokeColor=#82b366;" parent="nUT3khsGeMdMuA17AA8O-96" vertex="1">
          <mxGeometry x="303" y="477" width="71" height="47" as="geometry" />
        </mxCell>
        <mxCell id="nUT3khsGeMdMuA17AA8O-80" value="" style="rounded=0;whiteSpace=wrap;html=1;sketch=1;hachureGap=4;jiggle=2;curveFitting=1;fontFamily=Ma Shan Zheng;fontSource=https%3A%2F%2Ffonts.googleapis.com%2Fcss%3Ffamily%3DMa%2BShan%2BZheng;fontSize=20;container=0;fillColor=#d5e8d4;strokeColor=#82b366;" parent="nUT3khsGeMdMuA17AA8O-96" vertex="1">
          <mxGeometry x="374" y="477" width="97" height="47" as="geometry" />
        </mxCell>
        <mxCell id="nUT3khsGeMdMuA17AA8O-81" value="9" style="rounded=0;whiteSpace=wrap;html=1;sketch=1;hachureGap=4;jiggle=2;curveFitting=1;fontFamily=Ma Shan Zheng;fontSource=https%3A%2F%2Ffonts.googleapis.com%2Fcss%3Ffamily%3DMa%2BShan%2BZheng;fontSize=20;container=0;fillColor=#d5e8d4;strokeColor=#82b366;" parent="nUT3khsGeMdMuA17AA8O-96" vertex="1">
          <mxGeometry x="471" y="477" width="61" height="47" as="geometry" />
        </mxCell>
        <mxCell id="nUT3khsGeMdMuA17AA8O-82" value="" style="rounded=0;whiteSpace=wrap;html=1;sketch=1;hachureGap=4;jiggle=2;curveFitting=1;fontFamily=Ma Shan Zheng;fontSource=https%3A%2F%2Ffonts.googleapis.com%2Fcss%3Ffamily%3DMa%2BShan%2BZheng;fontSize=20;container=0;fillColor=#d5e8d4;strokeColor=#82b366;" parent="nUT3khsGeMdMuA17AA8O-96" vertex="1">
          <mxGeometry x="2" y="524" width="158" height="47" as="geometry" />
        </mxCell>
        <mxCell id="nUT3khsGeMdMuA17AA8O-83" value="" style="rounded=0;whiteSpace=wrap;html=1;sketch=1;hachureGap=4;jiggle=2;curveFitting=1;fontFamily=Ma Shan Zheng;fontSource=https%3A%2F%2Ffonts.googleapis.com%2Fcss%3Ffamily%3DMa%2BShan%2BZheng;fontSize=20;container=0;fillColor=#d5e8d4;strokeColor=#82b366;" parent="nUT3khsGeMdMuA17AA8O-96" vertex="1">
          <mxGeometry x="161" y="524" width="71" height="47" as="geometry" />
        </mxCell>
        <mxCell id="nUT3khsGeMdMuA17AA8O-84" value="" style="rounded=0;whiteSpace=wrap;html=1;sketch=1;hachureGap=4;jiggle=2;curveFitting=1;fontFamily=Ma Shan Zheng;fontSource=https%3A%2F%2Ffonts.googleapis.com%2Fcss%3Ffamily%3DMa%2BShan%2BZheng;fontSize=20;container=0;fillColor=#d5e8d4;strokeColor=#82b366;" parent="nUT3khsGeMdMuA17AA8O-96" vertex="1">
          <mxGeometry x="232" y="524" width="71" height="47" as="geometry" />
        </mxCell>
        <mxCell id="nUT3khsGeMdMuA17AA8O-85" value="" style="rounded=0;whiteSpace=wrap;html=1;sketch=1;hachureGap=4;jiggle=2;curveFitting=1;fontFamily=Ma Shan Zheng;fontSource=https%3A%2F%2Ffonts.googleapis.com%2Fcss%3Ffamily%3DMa%2BShan%2BZheng;fontSize=20;container=0;fillColor=#d5e8d4;strokeColor=#82b366;" parent="nUT3khsGeMdMuA17AA8O-96" vertex="1">
          <mxGeometry x="303" y="524" width="71" height="47" as="geometry" />
        </mxCell>
        <mxCell id="nUT3khsGeMdMuA17AA8O-86" value="" style="rounded=0;whiteSpace=wrap;html=1;sketch=1;hachureGap=4;jiggle=2;curveFitting=1;fontFamily=Ma Shan Zheng;fontSource=https%3A%2F%2Ffonts.googleapis.com%2Fcss%3Ffamily%3DMa%2BShan%2BZheng;fontSize=20;container=0;fillColor=#d5e8d4;strokeColor=#82b366;" parent="nUT3khsGeMdMuA17AA8O-96" vertex="1">
          <mxGeometry x="374" y="524" width="97" height="47" as="geometry" />
        </mxCell>
        <mxCell id="nUT3khsGeMdMuA17AA8O-87" value="10" style="rounded=0;whiteSpace=wrap;html=1;sketch=1;hachureGap=4;jiggle=2;curveFitting=1;fontFamily=Ma Shan Zheng;fontSource=https%3A%2F%2Ffonts.googleapis.com%2Fcss%3Ffamily%3DMa%2BShan%2BZheng;fontSize=20;container=0;fillColor=#d5e8d4;strokeColor=#82b366;" parent="nUT3khsGeMdMuA17AA8O-96" vertex="1">
          <mxGeometry x="471" y="524" width="61" height="47" as="geometry" />
        </mxCell>
        <mxCell id="nUT3khsGeMdMuA17AA8O-88" value="" style="rounded=0;whiteSpace=wrap;html=1;sketch=1;hachureGap=4;jiggle=2;curveFitting=1;fontFamily=Ma Shan Zheng;fontSource=https%3A%2F%2Ffonts.googleapis.com%2Fcss%3Ffamily%3DMa%2BShan%2BZheng;fontSize=20;container=0;fillColor=#f5f5f5;fontColor=#333333;strokeColor=#666666;" parent="nUT3khsGeMdMuA17AA8O-96" vertex="1">
          <mxGeometry y="573" width="158" height="47" as="geometry" />
        </mxCell>
        <mxCell id="nUT3khsGeMdMuA17AA8O-89" value="" style="rounded=0;whiteSpace=wrap;html=1;sketch=1;hachureGap=4;jiggle=2;curveFitting=1;fontFamily=Ma Shan Zheng;fontSource=https%3A%2F%2Ffonts.googleapis.com%2Fcss%3Ffamily%3DMa%2BShan%2BZheng;fontSize=20;container=0;fillColor=#f5f5f5;fontColor=#333333;strokeColor=#666666;" parent="nUT3khsGeMdMuA17AA8O-96" vertex="1">
          <mxGeometry x="159" y="573" width="71" height="47" as="geometry" />
        </mxCell>
        <mxCell id="nUT3khsGeMdMuA17AA8O-90" value="" style="rounded=0;whiteSpace=wrap;html=1;sketch=1;hachureGap=4;jiggle=2;curveFitting=1;fontFamily=Ma Shan Zheng;fontSource=https%3A%2F%2Ffonts.googleapis.com%2Fcss%3Ffamily%3DMa%2BShan%2BZheng;fontSize=20;container=0;fillColor=#f5f5f5;fontColor=#333333;strokeColor=#666666;" parent="nUT3khsGeMdMuA17AA8O-96" vertex="1">
          <mxGeometry x="230" y="573" width="71" height="47" as="geometry" />
        </mxCell>
        <mxCell id="nUT3khsGeMdMuA17AA8O-91" value="" style="rounded=0;whiteSpace=wrap;html=1;sketch=1;hachureGap=4;jiggle=2;curveFitting=1;fontFamily=Ma Shan Zheng;fontSource=https%3A%2F%2Ffonts.googleapis.com%2Fcss%3Ffamily%3DMa%2BShan%2BZheng;fontSize=20;container=0;fillColor=#f5f5f5;fontColor=#333333;strokeColor=#666666;" parent="nUT3khsGeMdMuA17AA8O-96" vertex="1">
          <mxGeometry x="301" y="573" width="71" height="47" as="geometry" />
        </mxCell>
        <mxCell id="nUT3khsGeMdMuA17AA8O-92" value="" style="rounded=0;whiteSpace=wrap;html=1;sketch=1;hachureGap=4;jiggle=2;curveFitting=1;fontFamily=Ma Shan Zheng;fontSource=https%3A%2F%2Ffonts.googleapis.com%2Fcss%3Ffamily%3DMa%2BShan%2BZheng;fontSize=20;container=0;fillColor=#f5f5f5;fontColor=#333333;strokeColor=#666666;" parent="nUT3khsGeMdMuA17AA8O-96" vertex="1">
          <mxGeometry x="372" y="573" width="97" height="47" as="geometry" />
        </mxCell>
        <mxCell id="nUT3khsGeMdMuA17AA8O-93" value="11" style="rounded=0;whiteSpace=wrap;html=1;sketch=1;hachureGap=4;jiggle=2;curveFitting=1;fontFamily=Ma Shan Zheng;fontSource=https%3A%2F%2Ffonts.googleapis.com%2Fcss%3Ffamily%3DMa%2BShan%2BZheng;fontSize=20;container=0;fillColor=#f5f5f5;fontColor=#333333;strokeColor=#666666;" parent="nUT3khsGeMdMuA17AA8O-96" vertex="1">
          <mxGeometry x="469" y="573" width="61" height="47" as="geometry" />
        </mxCell>
        <mxCell id="nUT3khsGeMdMuA17AA8O-97" value="" style="rounded=0;whiteSpace=wrap;html=1;sketch=1;hachureGap=4;jiggle=2;curveFitting=1;fontFamily=Ma Shan Zheng;fontSource=https%3A%2F%2Ffonts.googleapis.com%2Fcss%3Ffamily%3DMa%2BShan%2BZheng;fontSize=20;container=0;fillColor=#f5f5f5;fontColor=#333333;strokeColor=#666666;" parent="nUT3khsGeMdMuA17AA8O-151" vertex="1">
          <mxGeometry y="620" width="158" height="47" as="geometry" />
        </mxCell>
        <mxCell id="nUT3khsGeMdMuA17AA8O-98" value="" style="rounded=0;whiteSpace=wrap;html=1;sketch=1;hachureGap=4;jiggle=2;curveFitting=1;fontFamily=Ma Shan Zheng;fontSource=https%3A%2F%2Ffonts.googleapis.com%2Fcss%3Ffamily%3DMa%2BShan%2BZheng;fontSize=20;container=0;fillColor=#f5f5f5;fontColor=#333333;strokeColor=#666666;" parent="nUT3khsGeMdMuA17AA8O-151" vertex="1">
          <mxGeometry x="159" y="620" width="71" height="47" as="geometry" />
        </mxCell>
        <mxCell id="nUT3khsGeMdMuA17AA8O-99" value="" style="rounded=0;whiteSpace=wrap;html=1;sketch=1;hachureGap=4;jiggle=2;curveFitting=1;fontFamily=Ma Shan Zheng;fontSource=https%3A%2F%2Ffonts.googleapis.com%2Fcss%3Ffamily%3DMa%2BShan%2BZheng;fontSize=20;container=0;fillColor=#f5f5f5;fontColor=#333333;strokeColor=#666666;" parent="nUT3khsGeMdMuA17AA8O-151" vertex="1">
          <mxGeometry x="230" y="620" width="71" height="47" as="geometry" />
        </mxCell>
        <mxCell id="nUT3khsGeMdMuA17AA8O-100" value="" style="rounded=0;whiteSpace=wrap;html=1;sketch=1;hachureGap=4;jiggle=2;curveFitting=1;fontFamily=Ma Shan Zheng;fontSource=https%3A%2F%2Ffonts.googleapis.com%2Fcss%3Ffamily%3DMa%2BShan%2BZheng;fontSize=20;container=0;fillColor=#f5f5f5;fontColor=#333333;strokeColor=#666666;" parent="nUT3khsGeMdMuA17AA8O-151" vertex="1">
          <mxGeometry x="301" y="620" width="71" height="47" as="geometry" />
        </mxCell>
        <mxCell id="nUT3khsGeMdMuA17AA8O-101" value="" style="rounded=0;whiteSpace=wrap;html=1;sketch=1;hachureGap=4;jiggle=2;curveFitting=1;fontFamily=Ma Shan Zheng;fontSource=https%3A%2F%2Ffonts.googleapis.com%2Fcss%3Ffamily%3DMa%2BShan%2BZheng;fontSize=20;container=0;fillColor=#f5f5f5;fontColor=#333333;strokeColor=#666666;" parent="nUT3khsGeMdMuA17AA8O-151" vertex="1">
          <mxGeometry x="372" y="620" width="97" height="47" as="geometry" />
        </mxCell>
        <mxCell id="nUT3khsGeMdMuA17AA8O-102" value="12" style="rounded=0;whiteSpace=wrap;html=1;sketch=1;hachureGap=4;jiggle=2;curveFitting=1;fontFamily=Ma Shan Zheng;fontSource=https%3A%2F%2Ffonts.googleapis.com%2Fcss%3Ffamily%3DMa%2BShan%2BZheng;fontSize=20;container=0;fillColor=#f5f5f5;fontColor=#333333;strokeColor=#666666;" parent="nUT3khsGeMdMuA17AA8O-151" vertex="1">
          <mxGeometry x="469" y="620" width="61" height="47" as="geometry" />
        </mxCell>
        <mxCell id="nUT3khsGeMdMuA17AA8O-103" value="" style="rounded=0;whiteSpace=wrap;html=1;sketch=1;hachureGap=4;jiggle=2;curveFitting=1;fontFamily=Ma Shan Zheng;fontSource=https%3A%2F%2Ffonts.googleapis.com%2Fcss%3Ffamily%3DMa%2BShan%2BZheng;fontSize=20;container=0;fillColor=#f5f5f5;fontColor=#333333;strokeColor=#666666;" parent="nUT3khsGeMdMuA17AA8O-151" vertex="1">
          <mxGeometry y="667" width="158" height="47" as="geometry" />
        </mxCell>
        <mxCell id="nUT3khsGeMdMuA17AA8O-104" value="" style="rounded=0;whiteSpace=wrap;html=1;sketch=1;hachureGap=4;jiggle=2;curveFitting=1;fontFamily=Ma Shan Zheng;fontSource=https%3A%2F%2Ffonts.googleapis.com%2Fcss%3Ffamily%3DMa%2BShan%2BZheng;fontSize=20;container=0;fillColor=#f5f5f5;fontColor=#333333;strokeColor=#666666;" parent="nUT3khsGeMdMuA17AA8O-151" vertex="1">
          <mxGeometry x="159" y="667" width="71" height="47" as="geometry" />
        </mxCell>
        <mxCell id="nUT3khsGeMdMuA17AA8O-105" value="" style="rounded=0;whiteSpace=wrap;html=1;sketch=1;hachureGap=4;jiggle=2;curveFitting=1;fontFamily=Ma Shan Zheng;fontSource=https%3A%2F%2Ffonts.googleapis.com%2Fcss%3Ffamily%3DMa%2BShan%2BZheng;fontSize=20;container=0;fillColor=#f5f5f5;fontColor=#333333;strokeColor=#666666;" parent="nUT3khsGeMdMuA17AA8O-151" vertex="1">
          <mxGeometry x="230" y="667" width="71" height="47" as="geometry" />
        </mxCell>
        <mxCell id="nUT3khsGeMdMuA17AA8O-106" value="" style="rounded=0;whiteSpace=wrap;html=1;sketch=1;hachureGap=4;jiggle=2;curveFitting=1;fontFamily=Ma Shan Zheng;fontSource=https%3A%2F%2Ffonts.googleapis.com%2Fcss%3Ffamily%3DMa%2BShan%2BZheng;fontSize=20;container=0;fillColor=#f5f5f5;fontColor=#333333;strokeColor=#666666;" parent="nUT3khsGeMdMuA17AA8O-151" vertex="1">
          <mxGeometry x="301" y="667" width="71" height="47" as="geometry" />
        </mxCell>
        <mxCell id="nUT3khsGeMdMuA17AA8O-107" value="" style="rounded=0;whiteSpace=wrap;html=1;sketch=1;hachureGap=4;jiggle=2;curveFitting=1;fontFamily=Ma Shan Zheng;fontSource=https%3A%2F%2Ffonts.googleapis.com%2Fcss%3Ffamily%3DMa%2BShan%2BZheng;fontSize=20;container=0;fillColor=#f5f5f5;fontColor=#333333;strokeColor=#666666;" parent="nUT3khsGeMdMuA17AA8O-151" vertex="1">
          <mxGeometry x="372" y="667" width="97" height="47" as="geometry" />
        </mxCell>
        <mxCell id="nUT3khsGeMdMuA17AA8O-108" value="13" style="rounded=0;whiteSpace=wrap;html=1;sketch=1;hachureGap=4;jiggle=2;curveFitting=1;fontFamily=Ma Shan Zheng;fontSource=https%3A%2F%2Ffonts.googleapis.com%2Fcss%3Ffamily%3DMa%2BShan%2BZheng;fontSize=20;container=0;fillColor=#f5f5f5;fontColor=#333333;strokeColor=#666666;" parent="nUT3khsGeMdMuA17AA8O-151" vertex="1">
          <mxGeometry x="469" y="667" width="61" height="47" as="geometry" />
        </mxCell>
        <mxCell id="nUT3khsGeMdMuA17AA8O-109" value="" style="rounded=0;whiteSpace=wrap;html=1;sketch=1;hachureGap=4;jiggle=2;curveFitting=1;fontFamily=Ma Shan Zheng;fontSource=https%3A%2F%2Ffonts.googleapis.com%2Fcss%3Ffamily%3DMa%2BShan%2BZheng;fontSize=20;container=0;fillColor=#f5f5f5;fontColor=#333333;strokeColor=#666666;" parent="nUT3khsGeMdMuA17AA8O-151" vertex="1">
          <mxGeometry y="714" width="158" height="47" as="geometry" />
        </mxCell>
        <mxCell id="nUT3khsGeMdMuA17AA8O-110" value="" style="rounded=0;whiteSpace=wrap;html=1;sketch=1;hachureGap=4;jiggle=2;curveFitting=1;fontFamily=Ma Shan Zheng;fontSource=https%3A%2F%2Ffonts.googleapis.com%2Fcss%3Ffamily%3DMa%2BShan%2BZheng;fontSize=20;container=0;fillColor=#f5f5f5;fontColor=#333333;strokeColor=#666666;" parent="nUT3khsGeMdMuA17AA8O-151" vertex="1">
          <mxGeometry x="159" y="714" width="71" height="47" as="geometry" />
        </mxCell>
        <mxCell id="nUT3khsGeMdMuA17AA8O-111" value="" style="rounded=0;whiteSpace=wrap;html=1;sketch=1;hachureGap=4;jiggle=2;curveFitting=1;fontFamily=Ma Shan Zheng;fontSource=https%3A%2F%2Ffonts.googleapis.com%2Fcss%3Ffamily%3DMa%2BShan%2BZheng;fontSize=20;container=0;fillColor=#f5f5f5;fontColor=#333333;strokeColor=#666666;" parent="nUT3khsGeMdMuA17AA8O-151" vertex="1">
          <mxGeometry x="230" y="714" width="71" height="47" as="geometry" />
        </mxCell>
        <mxCell id="nUT3khsGeMdMuA17AA8O-112" value="" style="rounded=0;whiteSpace=wrap;html=1;sketch=1;hachureGap=4;jiggle=2;curveFitting=1;fontFamily=Ma Shan Zheng;fontSource=https%3A%2F%2Ffonts.googleapis.com%2Fcss%3Ffamily%3DMa%2BShan%2BZheng;fontSize=20;container=0;fillColor=#f5f5f5;fontColor=#333333;strokeColor=#666666;" parent="nUT3khsGeMdMuA17AA8O-151" vertex="1">
          <mxGeometry x="301" y="714" width="71" height="47" as="geometry" />
        </mxCell>
        <mxCell id="nUT3khsGeMdMuA17AA8O-113" value="" style="rounded=0;whiteSpace=wrap;html=1;sketch=1;hachureGap=4;jiggle=2;curveFitting=1;fontFamily=Ma Shan Zheng;fontSource=https%3A%2F%2Ffonts.googleapis.com%2Fcss%3Ffamily%3DMa%2BShan%2BZheng;fontSize=20;container=0;fillColor=#f5f5f5;fontColor=#333333;strokeColor=#666666;" parent="nUT3khsGeMdMuA17AA8O-151" vertex="1">
          <mxGeometry x="372" y="714" width="97" height="47" as="geometry" />
        </mxCell>
        <mxCell id="nUT3khsGeMdMuA17AA8O-114" value="14" style="rounded=0;whiteSpace=wrap;html=1;sketch=1;hachureGap=4;jiggle=2;curveFitting=1;fontFamily=Ma Shan Zheng;fontSource=https%3A%2F%2Ffonts.googleapis.com%2Fcss%3Ffamily%3DMa%2BShan%2BZheng;fontSize=20;container=0;fillColor=#f5f5f5;fontColor=#333333;strokeColor=#666666;" parent="nUT3khsGeMdMuA17AA8O-151" vertex="1">
          <mxGeometry x="469" y="714" width="61" height="47" as="geometry" />
        </mxCell>
        <mxCell id="nUT3khsGeMdMuA17AA8O-115" value="" style="rounded=0;whiteSpace=wrap;html=1;sketch=1;hachureGap=4;jiggle=2;curveFitting=1;fontFamily=Ma Shan Zheng;fontSource=https%3A%2F%2Ffonts.googleapis.com%2Fcss%3Ffamily%3DMa%2BShan%2BZheng;fontSize=20;container=0;fillColor=#f5f5f5;fontColor=#333333;strokeColor=#666666;" parent="nUT3khsGeMdMuA17AA8O-151" vertex="1">
          <mxGeometry y="763" width="158" height="47" as="geometry" />
        </mxCell>
        <mxCell id="nUT3khsGeMdMuA17AA8O-116" value="" style="rounded=0;whiteSpace=wrap;html=1;sketch=1;hachureGap=4;jiggle=2;curveFitting=1;fontFamily=Ma Shan Zheng;fontSource=https%3A%2F%2Ffonts.googleapis.com%2Fcss%3Ffamily%3DMa%2BShan%2BZheng;fontSize=20;container=0;fillColor=#f5f5f5;fontColor=#333333;strokeColor=#666666;" parent="nUT3khsGeMdMuA17AA8O-151" vertex="1">
          <mxGeometry x="159" y="763" width="71" height="47" as="geometry" />
        </mxCell>
        <mxCell id="nUT3khsGeMdMuA17AA8O-117" value="" style="rounded=0;whiteSpace=wrap;html=1;sketch=1;hachureGap=4;jiggle=2;curveFitting=1;fontFamily=Ma Shan Zheng;fontSource=https%3A%2F%2Ffonts.googleapis.com%2Fcss%3Ffamily%3DMa%2BShan%2BZheng;fontSize=20;container=0;fillColor=#f5f5f5;fontColor=#333333;strokeColor=#666666;" parent="nUT3khsGeMdMuA17AA8O-151" vertex="1">
          <mxGeometry x="230" y="763" width="71" height="47" as="geometry" />
        </mxCell>
        <mxCell id="nUT3khsGeMdMuA17AA8O-118" value="" style="rounded=0;whiteSpace=wrap;html=1;sketch=1;hachureGap=4;jiggle=2;curveFitting=1;fontFamily=Ma Shan Zheng;fontSource=https%3A%2F%2Ffonts.googleapis.com%2Fcss%3Ffamily%3DMa%2BShan%2BZheng;fontSize=20;container=0;fillColor=#f5f5f5;fontColor=#333333;strokeColor=#666666;" parent="nUT3khsGeMdMuA17AA8O-151" vertex="1">
          <mxGeometry x="301" y="763" width="71" height="47" as="geometry" />
        </mxCell>
        <mxCell id="nUT3khsGeMdMuA17AA8O-119" value="" style="rounded=0;whiteSpace=wrap;html=1;sketch=1;hachureGap=4;jiggle=2;curveFitting=1;fontFamily=Ma Shan Zheng;fontSource=https%3A%2F%2Ffonts.googleapis.com%2Fcss%3Ffamily%3DMa%2BShan%2BZheng;fontSize=20;container=0;fillColor=#f5f5f5;fontColor=#333333;strokeColor=#666666;" parent="nUT3khsGeMdMuA17AA8O-151" vertex="1">
          <mxGeometry x="372" y="763" width="97" height="47" as="geometry" />
        </mxCell>
        <mxCell id="nUT3khsGeMdMuA17AA8O-120" value="15" style="rounded=0;whiteSpace=wrap;html=1;sketch=1;hachureGap=4;jiggle=2;curveFitting=1;fontFamily=Ma Shan Zheng;fontSource=https%3A%2F%2Ffonts.googleapis.com%2Fcss%3Ffamily%3DMa%2BShan%2BZheng;fontSize=20;container=0;fillColor=#f5f5f5;fontColor=#333333;strokeColor=#666666;" parent="nUT3khsGeMdMuA17AA8O-151" vertex="1">
          <mxGeometry x="469" y="763" width="61" height="47" as="geometry" />
        </mxCell>
        <mxCell id="nUT3khsGeMdMuA17AA8O-121" value="" style="rounded=0;whiteSpace=wrap;html=1;sketch=1;hachureGap=4;jiggle=2;curveFitting=1;fontFamily=Ma Shan Zheng;fontSource=https%3A%2F%2Ffonts.googleapis.com%2Fcss%3Ffamily%3DMa%2BShan%2BZheng;fontSize=20;container=0;fillColor=#f5f5f5;fontColor=#333333;strokeColor=#666666;" parent="nUT3khsGeMdMuA17AA8O-151" vertex="1">
          <mxGeometry y="810" width="158" height="47" as="geometry" />
        </mxCell>
        <mxCell id="nUT3khsGeMdMuA17AA8O-122" value="" style="rounded=0;whiteSpace=wrap;html=1;sketch=1;hachureGap=4;jiggle=2;curveFitting=1;fontFamily=Ma Shan Zheng;fontSource=https%3A%2F%2Ffonts.googleapis.com%2Fcss%3Ffamily%3DMa%2BShan%2BZheng;fontSize=20;container=0;fillColor=#f5f5f5;fontColor=#333333;strokeColor=#666666;" parent="nUT3khsGeMdMuA17AA8O-151" vertex="1">
          <mxGeometry x="159" y="810" width="71" height="47" as="geometry" />
        </mxCell>
        <mxCell id="nUT3khsGeMdMuA17AA8O-123" value="" style="rounded=0;whiteSpace=wrap;html=1;sketch=1;hachureGap=4;jiggle=2;curveFitting=1;fontFamily=Ma Shan Zheng;fontSource=https%3A%2F%2Ffonts.googleapis.com%2Fcss%3Ffamily%3DMa%2BShan%2BZheng;fontSize=20;container=0;fillColor=#f5f5f5;fontColor=#333333;strokeColor=#666666;" parent="nUT3khsGeMdMuA17AA8O-151" vertex="1">
          <mxGeometry x="230" y="810" width="71" height="47" as="geometry" />
        </mxCell>
        <mxCell id="nUT3khsGeMdMuA17AA8O-124" value="" style="rounded=0;whiteSpace=wrap;html=1;sketch=1;hachureGap=4;jiggle=2;curveFitting=1;fontFamily=Ma Shan Zheng;fontSource=https%3A%2F%2Ffonts.googleapis.com%2Fcss%3Ffamily%3DMa%2BShan%2BZheng;fontSize=20;container=0;fillColor=#f5f5f5;fontColor=#333333;strokeColor=#666666;" parent="nUT3khsGeMdMuA17AA8O-151" vertex="1">
          <mxGeometry x="301" y="810" width="71" height="47" as="geometry" />
        </mxCell>
        <mxCell id="nUT3khsGeMdMuA17AA8O-125" value="" style="rounded=0;whiteSpace=wrap;html=1;sketch=1;hachureGap=4;jiggle=2;curveFitting=1;fontFamily=Ma Shan Zheng;fontSource=https%3A%2F%2Ffonts.googleapis.com%2Fcss%3Ffamily%3DMa%2BShan%2BZheng;fontSize=20;container=0;fillColor=#f5f5f5;fontColor=#333333;strokeColor=#666666;" parent="nUT3khsGeMdMuA17AA8O-151" vertex="1">
          <mxGeometry x="372" y="810" width="97" height="47" as="geometry" />
        </mxCell>
        <mxCell id="nUT3khsGeMdMuA17AA8O-126" value="16" style="rounded=0;whiteSpace=wrap;html=1;sketch=1;hachureGap=4;jiggle=2;curveFitting=1;fontFamily=Ma Shan Zheng;fontSource=https%3A%2F%2Ffonts.googleapis.com%2Fcss%3Ffamily%3DMa%2BShan%2BZheng;fontSize=20;container=0;fillColor=#f5f5f5;fontColor=#333333;strokeColor=#666666;" parent="nUT3khsGeMdMuA17AA8O-151" vertex="1">
          <mxGeometry x="469" y="810" width="61" height="47" as="geometry" />
        </mxCell>
        <mxCell id="nUT3khsGeMdMuA17AA8O-127" value="" style="rounded=0;whiteSpace=wrap;html=1;sketch=1;hachureGap=4;jiggle=2;curveFitting=1;fontFamily=Ma Shan Zheng;fontSource=https%3A%2F%2Ffonts.googleapis.com%2Fcss%3Ffamily%3DMa%2BShan%2BZheng;fontSize=20;container=0;fillColor=#f5f5f5;fontColor=#333333;strokeColor=#666666;" parent="nUT3khsGeMdMuA17AA8O-151" vertex="1">
          <mxGeometry y="857" width="158" height="47" as="geometry" />
        </mxCell>
        <mxCell id="nUT3khsGeMdMuA17AA8O-128" value="" style="rounded=0;whiteSpace=wrap;html=1;sketch=1;hachureGap=4;jiggle=2;curveFitting=1;fontFamily=Ma Shan Zheng;fontSource=https%3A%2F%2Ffonts.googleapis.com%2Fcss%3Ffamily%3DMa%2BShan%2BZheng;fontSize=20;container=0;fillColor=#f5f5f5;fontColor=#333333;strokeColor=#666666;" parent="nUT3khsGeMdMuA17AA8O-151" vertex="1">
          <mxGeometry x="159" y="857" width="71" height="47" as="geometry" />
        </mxCell>
        <mxCell id="nUT3khsGeMdMuA17AA8O-129" value="" style="rounded=0;whiteSpace=wrap;html=1;sketch=1;hachureGap=4;jiggle=2;curveFitting=1;fontFamily=Ma Shan Zheng;fontSource=https%3A%2F%2Ffonts.googleapis.com%2Fcss%3Ffamily%3DMa%2BShan%2BZheng;fontSize=20;container=0;fillColor=#f5f5f5;fontColor=#333333;strokeColor=#666666;" parent="nUT3khsGeMdMuA17AA8O-151" vertex="1">
          <mxGeometry x="230" y="857" width="71" height="47" as="geometry" />
        </mxCell>
        <mxCell id="nUT3khsGeMdMuA17AA8O-130" value="" style="rounded=0;whiteSpace=wrap;html=1;sketch=1;hachureGap=4;jiggle=2;curveFitting=1;fontFamily=Ma Shan Zheng;fontSource=https%3A%2F%2Ffonts.googleapis.com%2Fcss%3Ffamily%3DMa%2BShan%2BZheng;fontSize=20;container=0;fillColor=#f5f5f5;fontColor=#333333;strokeColor=#666666;" parent="nUT3khsGeMdMuA17AA8O-151" vertex="1">
          <mxGeometry x="301" y="857" width="71" height="47" as="geometry" />
        </mxCell>
        <mxCell id="nUT3khsGeMdMuA17AA8O-131" value="" style="rounded=0;whiteSpace=wrap;html=1;sketch=1;hachureGap=4;jiggle=2;curveFitting=1;fontFamily=Ma Shan Zheng;fontSource=https%3A%2F%2Ffonts.googleapis.com%2Fcss%3Ffamily%3DMa%2BShan%2BZheng;fontSize=20;container=0;fillColor=#f5f5f5;fontColor=#333333;strokeColor=#666666;" parent="nUT3khsGeMdMuA17AA8O-151" vertex="1">
          <mxGeometry x="372" y="857" width="97" height="47" as="geometry" />
        </mxCell>
        <mxCell id="nUT3khsGeMdMuA17AA8O-132" value="17" style="rounded=0;whiteSpace=wrap;html=1;sketch=1;hachureGap=4;jiggle=2;curveFitting=1;fontFamily=Ma Shan Zheng;fontSource=https%3A%2F%2Ffonts.googleapis.com%2Fcss%3Ffamily%3DMa%2BShan%2BZheng;fontSize=20;container=0;fillColor=#f5f5f5;fontColor=#333333;strokeColor=#666666;" parent="nUT3khsGeMdMuA17AA8O-151" vertex="1">
          <mxGeometry x="469" y="857" width="61" height="47" as="geometry" />
        </mxCell>
        <mxCell id="nUT3khsGeMdMuA17AA8O-133" value="" style="rounded=0;whiteSpace=wrap;html=1;sketch=1;hachureGap=4;jiggle=2;curveFitting=1;fontFamily=Ma Shan Zheng;fontSource=https%3A%2F%2Ffonts.googleapis.com%2Fcss%3Ffamily%3DMa%2BShan%2BZheng;fontSize=20;container=0;fillColor=#f5f5f5;fontColor=#333333;strokeColor=#666666;" parent="nUT3khsGeMdMuA17AA8O-151" vertex="1">
          <mxGeometry y="904" width="158" height="47" as="geometry" />
        </mxCell>
        <mxCell id="nUT3khsGeMdMuA17AA8O-134" value="" style="rounded=0;whiteSpace=wrap;html=1;sketch=1;hachureGap=4;jiggle=2;curveFitting=1;fontFamily=Ma Shan Zheng;fontSource=https%3A%2F%2Ffonts.googleapis.com%2Fcss%3Ffamily%3DMa%2BShan%2BZheng;fontSize=20;container=0;fillColor=#f5f5f5;fontColor=#333333;strokeColor=#666666;" parent="nUT3khsGeMdMuA17AA8O-151" vertex="1">
          <mxGeometry x="159" y="904" width="71" height="47" as="geometry" />
        </mxCell>
        <mxCell id="nUT3khsGeMdMuA17AA8O-135" value="" style="rounded=0;whiteSpace=wrap;html=1;sketch=1;hachureGap=4;jiggle=2;curveFitting=1;fontFamily=Ma Shan Zheng;fontSource=https%3A%2F%2Ffonts.googleapis.com%2Fcss%3Ffamily%3DMa%2BShan%2BZheng;fontSize=20;container=0;fillColor=#f5f5f5;fontColor=#333333;strokeColor=#666666;" parent="nUT3khsGeMdMuA17AA8O-151" vertex="1">
          <mxGeometry x="230" y="904" width="71" height="47" as="geometry" />
        </mxCell>
        <mxCell id="nUT3khsGeMdMuA17AA8O-136" value="" style="rounded=0;whiteSpace=wrap;html=1;sketch=1;hachureGap=4;jiggle=2;curveFitting=1;fontFamily=Ma Shan Zheng;fontSource=https%3A%2F%2Ffonts.googleapis.com%2Fcss%3Ffamily%3DMa%2BShan%2BZheng;fontSize=20;container=0;fillColor=#f5f5f5;fontColor=#333333;strokeColor=#666666;" parent="nUT3khsGeMdMuA17AA8O-151" vertex="1">
          <mxGeometry x="301" y="904" width="71" height="47" as="geometry" />
        </mxCell>
        <mxCell id="nUT3khsGeMdMuA17AA8O-137" value="" style="rounded=0;whiteSpace=wrap;html=1;sketch=1;hachureGap=4;jiggle=2;curveFitting=1;fontFamily=Ma Shan Zheng;fontSource=https%3A%2F%2Ffonts.googleapis.com%2Fcss%3Ffamily%3DMa%2BShan%2BZheng;fontSize=20;container=0;fillColor=#f5f5f5;fontColor=#333333;strokeColor=#666666;" parent="nUT3khsGeMdMuA17AA8O-151" vertex="1">
          <mxGeometry x="372" y="904" width="97" height="47" as="geometry" />
        </mxCell>
        <mxCell id="nUT3khsGeMdMuA17AA8O-138" value="18" style="rounded=0;whiteSpace=wrap;html=1;sketch=1;hachureGap=4;jiggle=2;curveFitting=1;fontFamily=Ma Shan Zheng;fontSource=https%3A%2F%2Ffonts.googleapis.com%2Fcss%3Ffamily%3DMa%2BShan%2BZheng;fontSize=20;container=0;fillColor=#f5f5f5;fontColor=#333333;strokeColor=#666666;" parent="nUT3khsGeMdMuA17AA8O-151" vertex="1">
          <mxGeometry x="469" y="904" width="61" height="47" as="geometry" />
        </mxCell>
        <mxCell id="nUT3khsGeMdMuA17AA8O-139" value="" style="rounded=0;whiteSpace=wrap;html=1;sketch=1;hachureGap=4;jiggle=2;curveFitting=1;fontFamily=Ma Shan Zheng;fontSource=https%3A%2F%2Ffonts.googleapis.com%2Fcss%3Ffamily%3DMa%2BShan%2BZheng;fontSize=20;container=0;fillColor=#f5f5f5;fontColor=#333333;strokeColor=#666666;" parent="nUT3khsGeMdMuA17AA8O-151" vertex="1">
          <mxGeometry y="951" width="158" height="47" as="geometry" />
        </mxCell>
        <mxCell id="nUT3khsGeMdMuA17AA8O-140" value="" style="rounded=0;whiteSpace=wrap;html=1;sketch=1;hachureGap=4;jiggle=2;curveFitting=1;fontFamily=Ma Shan Zheng;fontSource=https%3A%2F%2Ffonts.googleapis.com%2Fcss%3Ffamily%3DMa%2BShan%2BZheng;fontSize=20;container=0;fillColor=#f5f5f5;fontColor=#333333;strokeColor=#666666;" parent="nUT3khsGeMdMuA17AA8O-151" vertex="1">
          <mxGeometry x="159" y="951" width="71" height="47" as="geometry" />
        </mxCell>
        <mxCell id="nUT3khsGeMdMuA17AA8O-141" value="" style="rounded=0;whiteSpace=wrap;html=1;sketch=1;hachureGap=4;jiggle=2;curveFitting=1;fontFamily=Ma Shan Zheng;fontSource=https%3A%2F%2Ffonts.googleapis.com%2Fcss%3Ffamily%3DMa%2BShan%2BZheng;fontSize=20;container=0;fillColor=#f5f5f5;fontColor=#333333;strokeColor=#666666;" parent="nUT3khsGeMdMuA17AA8O-151" vertex="1">
          <mxGeometry x="230" y="951" width="71" height="47" as="geometry" />
        </mxCell>
        <mxCell id="nUT3khsGeMdMuA17AA8O-142" value="" style="rounded=0;whiteSpace=wrap;html=1;sketch=1;hachureGap=4;jiggle=2;curveFitting=1;fontFamily=Ma Shan Zheng;fontSource=https%3A%2F%2Ffonts.googleapis.com%2Fcss%3Ffamily%3DMa%2BShan%2BZheng;fontSize=20;container=0;fillColor=#f5f5f5;fontColor=#333333;strokeColor=#666666;" parent="nUT3khsGeMdMuA17AA8O-151" vertex="1">
          <mxGeometry x="301" y="951" width="71" height="47" as="geometry" />
        </mxCell>
        <mxCell id="nUT3khsGeMdMuA17AA8O-143" value="" style="rounded=0;whiteSpace=wrap;html=1;sketch=1;hachureGap=4;jiggle=2;curveFitting=1;fontFamily=Ma Shan Zheng;fontSource=https%3A%2F%2Ffonts.googleapis.com%2Fcss%3Ffamily%3DMa%2BShan%2BZheng;fontSize=20;container=0;fillColor=#f5f5f5;fontColor=#333333;strokeColor=#666666;" parent="nUT3khsGeMdMuA17AA8O-151" vertex="1">
          <mxGeometry x="372" y="951" width="97" height="47" as="geometry" />
        </mxCell>
        <mxCell id="nUT3khsGeMdMuA17AA8O-144" value="19" style="rounded=0;whiteSpace=wrap;html=1;sketch=1;hachureGap=4;jiggle=2;curveFitting=1;fontFamily=Ma Shan Zheng;fontSource=https%3A%2F%2Ffonts.googleapis.com%2Fcss%3Ffamily%3DMa%2BShan%2BZheng;fontSize=20;container=0;fillColor=#f5f5f5;fontColor=#333333;strokeColor=#666666;" parent="nUT3khsGeMdMuA17AA8O-151" vertex="1">
          <mxGeometry x="469" y="951" width="61" height="47" as="geometry" />
        </mxCell>
        <mxCell id="nUT3khsGeMdMuA17AA8O-145" value="" style="rounded=0;whiteSpace=wrap;html=1;sketch=1;hachureGap=4;jiggle=2;curveFitting=1;fontFamily=Ma Shan Zheng;fontSource=https%3A%2F%2Ffonts.googleapis.com%2Fcss%3Ffamily%3DMa%2BShan%2BZheng;fontSize=20;container=0;fillColor=#f5f5f5;fontColor=#333333;strokeColor=#666666;" parent="nUT3khsGeMdMuA17AA8O-151" vertex="1">
          <mxGeometry y="998" width="158" height="47" as="geometry" />
        </mxCell>
        <mxCell id="nUT3khsGeMdMuA17AA8O-146" value="" style="rounded=0;whiteSpace=wrap;html=1;sketch=1;hachureGap=4;jiggle=2;curveFitting=1;fontFamily=Ma Shan Zheng;fontSource=https%3A%2F%2Ffonts.googleapis.com%2Fcss%3Ffamily%3DMa%2BShan%2BZheng;fontSize=20;container=0;fillColor=#f5f5f5;fontColor=#333333;strokeColor=#666666;" parent="nUT3khsGeMdMuA17AA8O-151" vertex="1">
          <mxGeometry x="159" y="998" width="71" height="47" as="geometry" />
        </mxCell>
        <mxCell id="nUT3khsGeMdMuA17AA8O-147" value="" style="rounded=0;whiteSpace=wrap;html=1;sketch=1;hachureGap=4;jiggle=2;curveFitting=1;fontFamily=Ma Shan Zheng;fontSource=https%3A%2F%2Ffonts.googleapis.com%2Fcss%3Ffamily%3DMa%2BShan%2BZheng;fontSize=20;container=0;fillColor=#f5f5f5;fontColor=#333333;strokeColor=#666666;" parent="nUT3khsGeMdMuA17AA8O-151" vertex="1">
          <mxGeometry x="230" y="998" width="71" height="47" as="geometry" />
        </mxCell>
        <mxCell id="nUT3khsGeMdMuA17AA8O-148" value="" style="rounded=0;whiteSpace=wrap;html=1;sketch=1;hachureGap=4;jiggle=2;curveFitting=1;fontFamily=Ma Shan Zheng;fontSource=https%3A%2F%2Ffonts.googleapis.com%2Fcss%3Ffamily%3DMa%2BShan%2BZheng;fontSize=20;container=0;fillColor=#f5f5f5;fontColor=#333333;strokeColor=#666666;" parent="nUT3khsGeMdMuA17AA8O-151" vertex="1">
          <mxGeometry x="301" y="998" width="71" height="47" as="geometry" />
        </mxCell>
        <mxCell id="nUT3khsGeMdMuA17AA8O-149" value="" style="rounded=0;whiteSpace=wrap;html=1;sketch=1;hachureGap=4;jiggle=2;curveFitting=1;fontFamily=Ma Shan Zheng;fontSource=https%3A%2F%2Ffonts.googleapis.com%2Fcss%3Ffamily%3DMa%2BShan%2BZheng;fontSize=20;container=0;fillColor=#f5f5f5;fontColor=#333333;strokeColor=#666666;" parent="nUT3khsGeMdMuA17AA8O-151" vertex="1">
          <mxGeometry x="372" y="998" width="97" height="47" as="geometry" />
        </mxCell>
        <mxCell id="nUT3khsGeMdMuA17AA8O-150" value="20" style="rounded=0;whiteSpace=wrap;html=1;sketch=1;hachureGap=4;jiggle=2;curveFitting=1;fontFamily=Ma Shan Zheng;fontSource=https%3A%2F%2Ffonts.googleapis.com%2Fcss%3Ffamily%3DMa%2BShan%2BZheng;fontSize=20;container=0;fillColor=#f5f5f5;fontColor=#333333;strokeColor=#666666;" parent="nUT3khsGeMdMuA17AA8O-151" vertex="1">
          <mxGeometry x="469" y="998" width="61" height="47" as="geometry" />
        </mxCell>
        <mxCell id="nUT3khsGeMdMuA17AA8O-152" value="" style="group;fontFamily=Ma Shan Zheng;fontSource=https%3A%2F%2Ffonts.googleapis.com%2Fcss%3Ffamily%3DMa%2BShan%2BZheng;" parent="1" vertex="1" connectable="0">
          <mxGeometry x="1454" y="5" width="533" height="1045" as="geometry" />
        </mxCell>
        <mxCell id="nUT3khsGeMdMuA17AA8O-153" value="" style="group;fontFamily=Ma Shan Zheng;fontSource=https%3A%2F%2Ffonts.googleapis.com%2Fcss%3Ffamily%3DMa%2BShan%2BZheng;" parent="nUT3khsGeMdMuA17AA8O-152" vertex="1" connectable="0">
          <mxGeometry width="533" height="620" as="geometry" />
        </mxCell>
        <mxCell id="nUT3khsGeMdMuA17AA8O-154" value="草木榜" style="rounded=1;whiteSpace=wrap;html=1;sketch=1;hachureGap=4;jiggle=2;curveFitting=1;fontFamily=Ma Shan Zheng;fontSource=https%3A%2F%2Ffonts.googleapis.com%2Fcss%3Ffamily%3DMa%2BShan%2BZheng;fontSize=29;container=0;fontStyle=1" parent="nUT3khsGeMdMuA17AA8O-153" vertex="1">
          <mxGeometry x="3" width="527" height="51" as="geometry" />
        </mxCell>
        <mxCell id="nUT3khsGeMdMuA17AA8O-155" value="名" style="rounded=0;whiteSpace=wrap;html=1;sketch=1;hachureGap=4;jiggle=2;curveFitting=1;fontFamily=Ma Shan Zheng;fontSource=https%3A%2F%2Ffonts.googleapis.com%2Fcss%3Ffamily%3DMa%2BShan%2BZheng;fontSize=29;container=0;fontStyle=1" parent="nUT3khsGeMdMuA17AA8O-153" vertex="1">
          <mxGeometry x="3" y="51" width="157" height="44" as="geometry" />
        </mxCell>
        <mxCell id="nUT3khsGeMdMuA17AA8O-156" value="色" style="rounded=0;whiteSpace=wrap;html=1;sketch=1;hachureGap=4;jiggle=2;curveFitting=1;fontFamily=Ma Shan Zheng;fontSource=https%3A%2F%2Ffonts.googleapis.com%2Fcss%3Ffamily%3DMa%2BShan%2BZheng;fontSize=29;container=0;fontStyle=1" parent="nUT3khsGeMdMuA17AA8O-153" vertex="1">
          <mxGeometry x="160" y="51" width="71" height="47" as="geometry" />
        </mxCell>
        <mxCell id="nUT3khsGeMdMuA17AA8O-157" value="食" style="rounded=0;whiteSpace=wrap;html=1;sketch=1;hachureGap=4;jiggle=2;curveFitting=1;fontFamily=Ma Shan Zheng;fontSource=https%3A%2F%2Ffonts.googleapis.com%2Fcss%3Ffamily%3DMa%2BShan%2BZheng;fontSize=29;container=0;fontStyle=1" parent="nUT3khsGeMdMuA17AA8O-153" vertex="1">
          <mxGeometry x="231" y="51" width="71" height="47" as="geometry" />
        </mxCell>
        <mxCell id="nUT3khsGeMdMuA17AA8O-158" value="精" style="rounded=0;whiteSpace=wrap;html=1;sketch=1;hachureGap=4;jiggle=2;curveFitting=1;fontFamily=Ma Shan Zheng;fontSource=https%3A%2F%2Ffonts.googleapis.com%2Fcss%3Ffamily%3DMa%2BShan%2BZheng;fontSize=29;container=0;fontStyle=1" parent="nUT3khsGeMdMuA17AA8O-153" vertex="1">
          <mxGeometry x="302" y="51" width="71" height="47" as="geometry" />
        </mxCell>
        <mxCell id="nUT3khsGeMdMuA17AA8O-159" value="计" style="rounded=0;whiteSpace=wrap;html=1;sketch=1;hachureGap=4;jiggle=2;curveFitting=1;fontFamily=Ma Shan Zheng;fontSource=https%3A%2F%2Ffonts.googleapis.com%2Fcss%3Ffamily%3DMa%2BShan%2BZheng;fontSize=29;container=0;fontStyle=1" parent="nUT3khsGeMdMuA17AA8O-153" vertex="1">
          <mxGeometry x="373" y="51" width="97" height="47" as="geometry" />
        </mxCell>
        <mxCell id="nUT3khsGeMdMuA17AA8O-160" value="排行" style="rounded=0;whiteSpace=wrap;html=1;sketch=1;hachureGap=4;jiggle=2;curveFitting=1;fontFamily=Ma Shan Zheng;fontSource=https%3A%2F%2Ffonts.googleapis.com%2Fcss%3Ffamily%3DMa%2BShan%2BZheng;fontSize=29;container=0;fontStyle=1" parent="nUT3khsGeMdMuA17AA8O-153" vertex="1">
          <mxGeometry x="470" y="51" width="61" height="47" as="geometry" />
        </mxCell>
        <mxCell id="nUT3khsGeMdMuA17AA8O-161" value="&lt;div class=&quot;lake-content&quot;&gt;祝余&lt;/div&gt;" style="rounded=0;whiteSpace=wrap;html=1;sketch=1;hachureGap=4;jiggle=2;curveFitting=1;fontFamily=Ma Shan Zheng;fontSource=https%3A%2F%2Ffonts.googleapis.com%2Fcss%3Ffamily%3DMa%2BShan%2BZheng;fontSize=20;container=0;fillColor=#f8cecc;strokeColor=#b85450;" parent="nUT3khsGeMdMuA17AA8O-153" vertex="1">
          <mxGeometry x="2" y="96" width="158" height="47" as="geometry" />
        </mxCell>
        <mxCell id="nUT3khsGeMdMuA17AA8O-162" value="15" style="rounded=0;whiteSpace=wrap;html=1;sketch=1;hachureGap=4;jiggle=2;curveFitting=1;fontFamily=Ma Shan Zheng;fontSource=https%3A%2F%2Ffonts.googleapis.com%2Fcss%3Ffamily%3DMa%2BShan%2BZheng;fontSize=20;container=0;fillColor=#f8cecc;strokeColor=#b85450;" parent="nUT3khsGeMdMuA17AA8O-153" vertex="1">
          <mxGeometry x="161" y="96" width="71" height="47" as="geometry" />
        </mxCell>
        <mxCell id="nUT3khsGeMdMuA17AA8O-163" value="20" style="rounded=0;whiteSpace=wrap;html=1;sketch=1;hachureGap=4;jiggle=2;curveFitting=1;fontFamily=Ma Shan Zheng;fontSource=https%3A%2F%2Ffonts.googleapis.com%2Fcss%3Ffamily%3DMa%2BShan%2BZheng;fontSize=20;container=0;fillColor=#f8cecc;strokeColor=#b85450;" parent="nUT3khsGeMdMuA17AA8O-153" vertex="1">
          <mxGeometry x="232" y="96" width="71" height="47" as="geometry" />
        </mxCell>
        <mxCell id="nUT3khsGeMdMuA17AA8O-164" value="10" style="rounded=0;whiteSpace=wrap;html=1;sketch=1;hachureGap=4;jiggle=2;curveFitting=1;fontFamily=Ma Shan Zheng;fontSource=https%3A%2F%2Ffonts.googleapis.com%2Fcss%3Ffamily%3DMa%2BShan%2BZheng;fontSize=20;container=0;fillColor=#f8cecc;strokeColor=#b85450;" parent="nUT3khsGeMdMuA17AA8O-153" vertex="1">
          <mxGeometry x="303" y="96" width="71" height="47" as="geometry" />
        </mxCell>
        <mxCell id="nUT3khsGeMdMuA17AA8O-165" value="45" style="rounded=0;whiteSpace=wrap;html=1;sketch=1;hachureGap=4;jiggle=2;curveFitting=1;fontFamily=Ma Shan Zheng;fontSource=https%3A%2F%2Ffonts.googleapis.com%2Fcss%3Ffamily%3DMa%2BShan%2BZheng;fontSize=20;container=0;fillColor=#f8cecc;strokeColor=#b85450;" parent="nUT3khsGeMdMuA17AA8O-153" vertex="1">
          <mxGeometry x="374" y="96" width="97" height="47" as="geometry" />
        </mxCell>
        <mxCell id="nUT3khsGeMdMuA17AA8O-166" value="1" style="rounded=0;whiteSpace=wrap;html=1;sketch=1;hachureGap=4;jiggle=2;curveFitting=1;fontFamily=Ma Shan Zheng;fontSource=https%3A%2F%2Ffonts.googleapis.com%2Fcss%3Ffamily%3DMa%2BShan%2BZheng;fontSize=20;container=0;fillColor=#f8cecc;strokeColor=#b85450;" parent="nUT3khsGeMdMuA17AA8O-153" vertex="1">
          <mxGeometry x="471" y="96" width="61" height="47" as="geometry" />
        </mxCell>
        <mxCell id="nUT3khsGeMdMuA17AA8O-167" value="&lt;div class=&quot;lake-content&quot;&gt;迷穀&lt;/div&gt;" style="rounded=0;whiteSpace=wrap;html=1;sketch=1;hachureGap=4;jiggle=2;curveFitting=1;fontFamily=Ma Shan Zheng;fontSource=https%3A%2F%2Ffonts.googleapis.com%2Fcss%3Ffamily%3DMa%2BShan%2BZheng;fontSize=20;container=0;fillColor=#f8cecc;strokeColor=#b85450;" parent="nUT3khsGeMdMuA17AA8O-153" vertex="1">
          <mxGeometry x="3" y="144" width="158" height="47" as="geometry" />
        </mxCell>
        <mxCell id="nUT3khsGeMdMuA17AA8O-168" value="14" style="rounded=0;whiteSpace=wrap;html=1;sketch=1;hachureGap=4;jiggle=2;curveFitting=1;fontFamily=Ma Shan Zheng;fontSource=https%3A%2F%2Ffonts.googleapis.com%2Fcss%3Ffamily%3DMa%2BShan%2BZheng;fontSize=20;container=0;fillColor=#f8cecc;strokeColor=#b85450;" parent="nUT3khsGeMdMuA17AA8O-153" vertex="1">
          <mxGeometry x="162" y="144" width="71" height="47" as="geometry" />
        </mxCell>
        <mxCell id="nUT3khsGeMdMuA17AA8O-169" value="0" style="rounded=0;whiteSpace=wrap;html=1;sketch=1;hachureGap=4;jiggle=2;curveFitting=1;fontFamily=Ma Shan Zheng;fontSource=https%3A%2F%2Ffonts.googleapis.com%2Fcss%3Ffamily%3DMa%2BShan%2BZheng;fontSize=20;container=0;fillColor=#f8cecc;strokeColor=#b85450;" parent="nUT3khsGeMdMuA17AA8O-153" vertex="1">
          <mxGeometry x="233" y="144" width="71" height="47" as="geometry" />
        </mxCell>
        <mxCell id="nUT3khsGeMdMuA17AA8O-170" value="25" style="rounded=0;whiteSpace=wrap;html=1;sketch=1;hachureGap=4;jiggle=2;curveFitting=1;fontFamily=Ma Shan Zheng;fontSource=https%3A%2F%2Ffonts.googleapis.com%2Fcss%3Ffamily%3DMa%2BShan%2BZheng;fontSize=20;container=0;fillColor=#f8cecc;strokeColor=#b85450;" parent="nUT3khsGeMdMuA17AA8O-153" vertex="1">
          <mxGeometry x="304" y="144" width="71" height="47" as="geometry" />
        </mxCell>
        <mxCell id="nUT3khsGeMdMuA17AA8O-171" value="39" style="rounded=0;whiteSpace=wrap;html=1;sketch=1;hachureGap=4;jiggle=2;curveFitting=1;fontFamily=Ma Shan Zheng;fontSource=https%3A%2F%2Ffonts.googleapis.com%2Fcss%3Ffamily%3DMa%2BShan%2BZheng;fontSize=20;container=0;fillColor=#f8cecc;strokeColor=#b85450;" parent="nUT3khsGeMdMuA17AA8O-153" vertex="1">
          <mxGeometry x="375" y="144" width="97" height="47" as="geometry" />
        </mxCell>
        <mxCell id="nUT3khsGeMdMuA17AA8O-172" value="2" style="rounded=0;whiteSpace=wrap;html=1;sketch=1;hachureGap=4;jiggle=2;curveFitting=1;fontFamily=Ma Shan Zheng;fontSource=https%3A%2F%2Ffonts.googleapis.com%2Fcss%3Ffamily%3DMa%2BShan%2BZheng;fontSize=20;container=0;fillColor=#f8cecc;strokeColor=#b85450;" parent="nUT3khsGeMdMuA17AA8O-153" vertex="1">
          <mxGeometry x="472" y="144" width="61" height="47" as="geometry" />
        </mxCell>
        <mxCell id="nUT3khsGeMdMuA17AA8O-173" value="" style="rounded=0;whiteSpace=wrap;html=1;sketch=1;hachureGap=4;jiggle=2;curveFitting=1;fontFamily=Ma Shan Zheng;fontSource=https%3A%2F%2Ffonts.googleapis.com%2Fcss%3Ffamily%3DMa%2BShan%2BZheng;fontSize=20;container=0;fillColor=#f8cecc;strokeColor=#b85450;" parent="nUT3khsGeMdMuA17AA8O-153" vertex="1">
          <mxGeometry x="3" y="191" width="158" height="47" as="geometry" />
        </mxCell>
        <mxCell id="nUT3khsGeMdMuA17AA8O-174" value="" style="rounded=0;whiteSpace=wrap;html=1;sketch=1;hachureGap=4;jiggle=2;curveFitting=1;fontFamily=Ma Shan Zheng;fontSource=https%3A%2F%2Ffonts.googleapis.com%2Fcss%3Ffamily%3DMa%2BShan%2BZheng;fontSize=20;container=0;fillColor=#f8cecc;strokeColor=#b85450;" parent="nUT3khsGeMdMuA17AA8O-153" vertex="1">
          <mxGeometry x="162" y="191" width="71" height="47" as="geometry" />
        </mxCell>
        <mxCell id="nUT3khsGeMdMuA17AA8O-175" value="" style="rounded=0;whiteSpace=wrap;html=1;sketch=1;hachureGap=4;jiggle=2;curveFitting=1;fontFamily=Ma Shan Zheng;fontSource=https%3A%2F%2Ffonts.googleapis.com%2Fcss%3Ffamily%3DMa%2BShan%2BZheng;fontSize=20;container=0;fillColor=#f8cecc;strokeColor=#b85450;" parent="nUT3khsGeMdMuA17AA8O-153" vertex="1">
          <mxGeometry x="233" y="191" width="71" height="47" as="geometry" />
        </mxCell>
        <mxCell id="nUT3khsGeMdMuA17AA8O-176" value="" style="rounded=0;whiteSpace=wrap;html=1;sketch=1;hachureGap=4;jiggle=2;curveFitting=1;fontFamily=Ma Shan Zheng;fontSource=https%3A%2F%2Ffonts.googleapis.com%2Fcss%3Ffamily%3DMa%2BShan%2BZheng;fontSize=20;container=0;fillColor=#f8cecc;strokeColor=#b85450;" parent="nUT3khsGeMdMuA17AA8O-153" vertex="1">
          <mxGeometry x="304" y="191" width="71" height="47" as="geometry" />
        </mxCell>
        <mxCell id="nUT3khsGeMdMuA17AA8O-177" value="" style="rounded=0;whiteSpace=wrap;html=1;sketch=1;hachureGap=4;jiggle=2;curveFitting=1;fontFamily=Ma Shan Zheng;fontSource=https%3A%2F%2Ffonts.googleapis.com%2Fcss%3Ffamily%3DMa%2BShan%2BZheng;fontSize=20;container=0;fillColor=#f8cecc;strokeColor=#b85450;" parent="nUT3khsGeMdMuA17AA8O-153" vertex="1">
          <mxGeometry x="375" y="191" width="97" height="47" as="geometry" />
        </mxCell>
        <mxCell id="nUT3khsGeMdMuA17AA8O-178" value="3" style="rounded=0;whiteSpace=wrap;html=1;sketch=1;hachureGap=4;jiggle=2;curveFitting=1;fontFamily=Ma Shan Zheng;fontSource=https%3A%2F%2Ffonts.googleapis.com%2Fcss%3Ffamily%3DMa%2BShan%2BZheng;fontSize=20;container=0;fillColor=#f8cecc;strokeColor=#b85450;" parent="nUT3khsGeMdMuA17AA8O-153" vertex="1">
          <mxGeometry x="472" y="191" width="61" height="47" as="geometry" />
        </mxCell>
        <mxCell id="nUT3khsGeMdMuA17AA8O-179" value="" style="rounded=0;whiteSpace=wrap;html=1;sketch=1;hachureGap=4;jiggle=2;curveFitting=1;fontFamily=Ma Shan Zheng;fontSource=https%3A%2F%2Ffonts.googleapis.com%2Fcss%3Ffamily%3DMa%2BShan%2BZheng;fontSize=20;container=0;fillColor=#d5e8d4;strokeColor=#82b366;" parent="nUT3khsGeMdMuA17AA8O-153" vertex="1">
          <mxGeometry x="1" y="238" width="158" height="47" as="geometry" />
        </mxCell>
        <mxCell id="nUT3khsGeMdMuA17AA8O-180" value="" style="rounded=0;whiteSpace=wrap;html=1;sketch=1;hachureGap=4;jiggle=2;curveFitting=1;fontFamily=Ma Shan Zheng;fontSource=https%3A%2F%2Ffonts.googleapis.com%2Fcss%3Ffamily%3DMa%2BShan%2BZheng;fontSize=20;container=0;fillColor=#d5e8d4;strokeColor=#82b366;" parent="nUT3khsGeMdMuA17AA8O-153" vertex="1">
          <mxGeometry x="160" y="238" width="71" height="47" as="geometry" />
        </mxCell>
        <mxCell id="nUT3khsGeMdMuA17AA8O-181" value="" style="rounded=0;whiteSpace=wrap;html=1;sketch=1;hachureGap=4;jiggle=2;curveFitting=1;fontFamily=Ma Shan Zheng;fontSource=https%3A%2F%2Ffonts.googleapis.com%2Fcss%3Ffamily%3DMa%2BShan%2BZheng;fontSize=20;container=0;fillColor=#d5e8d4;strokeColor=#82b366;" parent="nUT3khsGeMdMuA17AA8O-153" vertex="1">
          <mxGeometry x="231" y="238" width="71" height="47" as="geometry" />
        </mxCell>
        <mxCell id="nUT3khsGeMdMuA17AA8O-182" value="" style="rounded=0;whiteSpace=wrap;html=1;sketch=1;hachureGap=4;jiggle=2;curveFitting=1;fontFamily=Ma Shan Zheng;fontSource=https%3A%2F%2Ffonts.googleapis.com%2Fcss%3Ffamily%3DMa%2BShan%2BZheng;fontSize=20;container=0;fillColor=#d5e8d4;strokeColor=#82b366;" parent="nUT3khsGeMdMuA17AA8O-153" vertex="1">
          <mxGeometry x="302" y="238" width="71" height="47" as="geometry" />
        </mxCell>
        <mxCell id="nUT3khsGeMdMuA17AA8O-183" value="" style="rounded=0;whiteSpace=wrap;html=1;sketch=1;hachureGap=4;jiggle=2;curveFitting=1;fontFamily=Ma Shan Zheng;fontSource=https%3A%2F%2Ffonts.googleapis.com%2Fcss%3Ffamily%3DMa%2BShan%2BZheng;fontSize=20;container=0;fillColor=#d5e8d4;strokeColor=#82b366;" parent="nUT3khsGeMdMuA17AA8O-153" vertex="1">
          <mxGeometry x="373" y="238" width="97" height="47" as="geometry" />
        </mxCell>
        <mxCell id="nUT3khsGeMdMuA17AA8O-184" value="4" style="rounded=0;whiteSpace=wrap;html=1;sketch=1;hachureGap=4;jiggle=2;curveFitting=1;fontFamily=Ma Shan Zheng;fontSource=https%3A%2F%2Ffonts.googleapis.com%2Fcss%3Ffamily%3DMa%2BShan%2BZheng;fontSize=20;container=0;fillColor=#d5e8d4;strokeColor=#82b366;" parent="nUT3khsGeMdMuA17AA8O-153" vertex="1">
          <mxGeometry x="470" y="238" width="61" height="47" as="geometry" />
        </mxCell>
        <mxCell id="nUT3khsGeMdMuA17AA8O-185" value="" style="rounded=0;whiteSpace=wrap;html=1;sketch=1;hachureGap=4;jiggle=2;curveFitting=1;fontFamily=Ma Shan Zheng;fontSource=https%3A%2F%2Ffonts.googleapis.com%2Fcss%3Ffamily%3DMa%2BShan%2BZheng;fontSize=20;container=0;fillColor=#d5e8d4;strokeColor=#82b366;" parent="nUT3khsGeMdMuA17AA8O-153" vertex="1">
          <mxGeometry x="2" y="286" width="158" height="47" as="geometry" />
        </mxCell>
        <mxCell id="nUT3khsGeMdMuA17AA8O-186" value="" style="rounded=0;whiteSpace=wrap;html=1;sketch=1;hachureGap=4;jiggle=2;curveFitting=1;fontFamily=Ma Shan Zheng;fontSource=https%3A%2F%2Ffonts.googleapis.com%2Fcss%3Ffamily%3DMa%2BShan%2BZheng;fontSize=20;container=0;fillColor=#d5e8d4;strokeColor=#82b366;" parent="nUT3khsGeMdMuA17AA8O-153" vertex="1">
          <mxGeometry x="161" y="286" width="71" height="47" as="geometry" />
        </mxCell>
        <mxCell id="nUT3khsGeMdMuA17AA8O-187" value="" style="rounded=0;whiteSpace=wrap;html=1;sketch=1;hachureGap=4;jiggle=2;curveFitting=1;fontFamily=Ma Shan Zheng;fontSource=https%3A%2F%2Ffonts.googleapis.com%2Fcss%3Ffamily%3DMa%2BShan%2BZheng;fontSize=20;container=0;fillColor=#d5e8d4;strokeColor=#82b366;" parent="nUT3khsGeMdMuA17AA8O-153" vertex="1">
          <mxGeometry x="232" y="286" width="71" height="47" as="geometry" />
        </mxCell>
        <mxCell id="nUT3khsGeMdMuA17AA8O-188" value="" style="rounded=0;whiteSpace=wrap;html=1;sketch=1;hachureGap=4;jiggle=2;curveFitting=1;fontFamily=Ma Shan Zheng;fontSource=https%3A%2F%2Ffonts.googleapis.com%2Fcss%3Ffamily%3DMa%2BShan%2BZheng;fontSize=20;container=0;fillColor=#d5e8d4;strokeColor=#82b366;" parent="nUT3khsGeMdMuA17AA8O-153" vertex="1">
          <mxGeometry x="303" y="286" width="71" height="47" as="geometry" />
        </mxCell>
        <mxCell id="nUT3khsGeMdMuA17AA8O-189" value="" style="rounded=0;whiteSpace=wrap;html=1;sketch=1;hachureGap=4;jiggle=2;curveFitting=1;fontFamily=Ma Shan Zheng;fontSource=https%3A%2F%2Ffonts.googleapis.com%2Fcss%3Ffamily%3DMa%2BShan%2BZheng;fontSize=20;container=0;fillColor=#d5e8d4;strokeColor=#82b366;" parent="nUT3khsGeMdMuA17AA8O-153" vertex="1">
          <mxGeometry x="374" y="286" width="97" height="47" as="geometry" />
        </mxCell>
        <mxCell id="nUT3khsGeMdMuA17AA8O-190" value="5" style="rounded=0;whiteSpace=wrap;html=1;sketch=1;hachureGap=4;jiggle=2;curveFitting=1;fontFamily=Ma Shan Zheng;fontSource=https%3A%2F%2Ffonts.googleapis.com%2Fcss%3Ffamily%3DMa%2BShan%2BZheng;fontSize=20;container=0;fillColor=#d5e8d4;strokeColor=#82b366;" parent="nUT3khsGeMdMuA17AA8O-153" vertex="1">
          <mxGeometry x="471" y="286" width="61" height="47" as="geometry" />
        </mxCell>
        <mxCell id="nUT3khsGeMdMuA17AA8O-191" value="" style="rounded=0;whiteSpace=wrap;html=1;sketch=1;hachureGap=4;jiggle=2;curveFitting=1;fontFamily=Ma Shan Zheng;fontSource=https%3A%2F%2Ffonts.googleapis.com%2Fcss%3Ffamily%3DMa%2BShan%2BZheng;fontSize=20;container=0;fillColor=#d5e8d4;strokeColor=#82b366;" parent="nUT3khsGeMdMuA17AA8O-153" vertex="1">
          <mxGeometry x="2" y="333" width="158" height="47" as="geometry" />
        </mxCell>
        <mxCell id="nUT3khsGeMdMuA17AA8O-192" value="" style="rounded=0;whiteSpace=wrap;html=1;sketch=1;hachureGap=4;jiggle=2;curveFitting=1;fontFamily=Ma Shan Zheng;fontSource=https%3A%2F%2Ffonts.googleapis.com%2Fcss%3Ffamily%3DMa%2BShan%2BZheng;fontSize=20;container=0;fillColor=#d5e8d4;strokeColor=#82b366;" parent="nUT3khsGeMdMuA17AA8O-153" vertex="1">
          <mxGeometry x="161" y="333" width="71" height="47" as="geometry" />
        </mxCell>
        <mxCell id="nUT3khsGeMdMuA17AA8O-193" value="" style="rounded=0;whiteSpace=wrap;html=1;sketch=1;hachureGap=4;jiggle=2;curveFitting=1;fontFamily=Ma Shan Zheng;fontSource=https%3A%2F%2Ffonts.googleapis.com%2Fcss%3Ffamily%3DMa%2BShan%2BZheng;fontSize=20;container=0;fillColor=#d5e8d4;strokeColor=#82b366;" parent="nUT3khsGeMdMuA17AA8O-153" vertex="1">
          <mxGeometry x="232" y="333" width="71" height="47" as="geometry" />
        </mxCell>
        <mxCell id="nUT3khsGeMdMuA17AA8O-194" value="" style="rounded=0;whiteSpace=wrap;html=1;sketch=1;hachureGap=4;jiggle=2;curveFitting=1;fontFamily=Ma Shan Zheng;fontSource=https%3A%2F%2Ffonts.googleapis.com%2Fcss%3Ffamily%3DMa%2BShan%2BZheng;fontSize=20;container=0;fillColor=#d5e8d4;strokeColor=#82b366;" parent="nUT3khsGeMdMuA17AA8O-153" vertex="1">
          <mxGeometry x="303" y="333" width="71" height="47" as="geometry" />
        </mxCell>
        <mxCell id="nUT3khsGeMdMuA17AA8O-195" value="" style="rounded=0;whiteSpace=wrap;html=1;sketch=1;hachureGap=4;jiggle=2;curveFitting=1;fontFamily=Ma Shan Zheng;fontSource=https%3A%2F%2Ffonts.googleapis.com%2Fcss%3Ffamily%3DMa%2BShan%2BZheng;fontSize=20;container=0;fillColor=#d5e8d4;strokeColor=#82b366;" parent="nUT3khsGeMdMuA17AA8O-153" vertex="1">
          <mxGeometry x="374" y="333" width="97" height="47" as="geometry" />
        </mxCell>
        <mxCell id="nUT3khsGeMdMuA17AA8O-196" value="6" style="rounded=0;whiteSpace=wrap;html=1;sketch=1;hachureGap=4;jiggle=2;curveFitting=1;fontFamily=Ma Shan Zheng;fontSource=https%3A%2F%2Ffonts.googleapis.com%2Fcss%3Ffamily%3DMa%2BShan%2BZheng;fontSize=20;container=0;fillColor=#d5e8d4;strokeColor=#82b366;" parent="nUT3khsGeMdMuA17AA8O-153" vertex="1">
          <mxGeometry x="471" y="333" width="61" height="47" as="geometry" />
        </mxCell>
        <mxCell id="nUT3khsGeMdMuA17AA8O-197" value="" style="rounded=0;whiteSpace=wrap;html=1;sketch=1;hachureGap=4;jiggle=2;curveFitting=1;fontFamily=Ma Shan Zheng;fontSource=https%3A%2F%2Ffonts.googleapis.com%2Fcss%3Ffamily%3DMa%2BShan%2BZheng;fontSize=20;container=0;fillColor=#d5e8d4;strokeColor=#82b366;" parent="nUT3khsGeMdMuA17AA8O-153" vertex="1">
          <mxGeometry x="1" y="381" width="158" height="47" as="geometry" />
        </mxCell>
        <mxCell id="nUT3khsGeMdMuA17AA8O-198" value="" style="rounded=0;whiteSpace=wrap;html=1;sketch=1;hachureGap=4;jiggle=2;curveFitting=1;fontFamily=Ma Shan Zheng;fontSource=https%3A%2F%2Ffonts.googleapis.com%2Fcss%3Ffamily%3DMa%2BShan%2BZheng;fontSize=20;container=0;fillColor=#d5e8d4;strokeColor=#82b366;" parent="nUT3khsGeMdMuA17AA8O-153" vertex="1">
          <mxGeometry x="160" y="381" width="71" height="47" as="geometry" />
        </mxCell>
        <mxCell id="nUT3khsGeMdMuA17AA8O-199" value="" style="rounded=0;whiteSpace=wrap;html=1;sketch=1;hachureGap=4;jiggle=2;curveFitting=1;fontFamily=Ma Shan Zheng;fontSource=https%3A%2F%2Ffonts.googleapis.com%2Fcss%3Ffamily%3DMa%2BShan%2BZheng;fontSize=20;container=0;fillColor=#d5e8d4;strokeColor=#82b366;" parent="nUT3khsGeMdMuA17AA8O-153" vertex="1">
          <mxGeometry x="231" y="381" width="71" height="47" as="geometry" />
        </mxCell>
        <mxCell id="nUT3khsGeMdMuA17AA8O-200" value="" style="rounded=0;whiteSpace=wrap;html=1;sketch=1;hachureGap=4;jiggle=2;curveFitting=1;fontFamily=Ma Shan Zheng;fontSource=https%3A%2F%2Ffonts.googleapis.com%2Fcss%3Ffamily%3DMa%2BShan%2BZheng;fontSize=20;container=0;fillColor=#d5e8d4;strokeColor=#82b366;" parent="nUT3khsGeMdMuA17AA8O-153" vertex="1">
          <mxGeometry x="302" y="381" width="71" height="47" as="geometry" />
        </mxCell>
        <mxCell id="nUT3khsGeMdMuA17AA8O-201" value="" style="rounded=0;whiteSpace=wrap;html=1;sketch=1;hachureGap=4;jiggle=2;curveFitting=1;fontFamily=Ma Shan Zheng;fontSource=https%3A%2F%2Ffonts.googleapis.com%2Fcss%3Ffamily%3DMa%2BShan%2BZheng;fontSize=20;container=0;fillColor=#d5e8d4;strokeColor=#82b366;" parent="nUT3khsGeMdMuA17AA8O-153" vertex="1">
          <mxGeometry x="375" y="381" width="97" height="47" as="geometry" />
        </mxCell>
        <mxCell id="nUT3khsGeMdMuA17AA8O-202" value="7" style="rounded=0;whiteSpace=wrap;html=1;sketch=1;hachureGap=4;jiggle=2;curveFitting=1;fontFamily=Ma Shan Zheng;fontSource=https%3A%2F%2Ffonts.googleapis.com%2Fcss%3Ffamily%3DMa%2BShan%2BZheng;fontSize=20;container=0;fillColor=#d5e8d4;strokeColor=#82b366;" parent="nUT3khsGeMdMuA17AA8O-153" vertex="1">
          <mxGeometry x="472" y="381" width="61" height="47" as="geometry" />
        </mxCell>
        <mxCell id="nUT3khsGeMdMuA17AA8O-203" value="" style="rounded=0;whiteSpace=wrap;html=1;sketch=1;hachureGap=4;jiggle=2;curveFitting=1;fontFamily=Ma Shan Zheng;fontSource=https%3A%2F%2Ffonts.googleapis.com%2Fcss%3Ffamily%3DMa%2BShan%2BZheng;fontSize=20;container=0;fillColor=#d5e8d4;strokeColor=#82b366;" parent="nUT3khsGeMdMuA17AA8O-153" vertex="1">
          <mxGeometry x="1" y="429" width="158" height="47" as="geometry" />
        </mxCell>
        <mxCell id="nUT3khsGeMdMuA17AA8O-204" value="" style="rounded=0;whiteSpace=wrap;html=1;sketch=1;hachureGap=4;jiggle=2;curveFitting=1;fontFamily=Ma Shan Zheng;fontSource=https%3A%2F%2Ffonts.googleapis.com%2Fcss%3Ffamily%3DMa%2BShan%2BZheng;fontSize=20;container=0;fillColor=#d5e8d4;strokeColor=#82b366;" parent="nUT3khsGeMdMuA17AA8O-153" vertex="1">
          <mxGeometry x="160" y="429" width="71" height="47" as="geometry" />
        </mxCell>
        <mxCell id="nUT3khsGeMdMuA17AA8O-205" value="" style="rounded=0;whiteSpace=wrap;html=1;sketch=1;hachureGap=4;jiggle=2;curveFitting=1;fontFamily=Ma Shan Zheng;fontSource=https%3A%2F%2Ffonts.googleapis.com%2Fcss%3Ffamily%3DMa%2BShan%2BZheng;fontSize=20;container=0;fillColor=#d5e8d4;strokeColor=#82b366;" parent="nUT3khsGeMdMuA17AA8O-153" vertex="1">
          <mxGeometry x="231" y="429" width="71" height="47" as="geometry" />
        </mxCell>
        <mxCell id="nUT3khsGeMdMuA17AA8O-206" value="" style="rounded=0;whiteSpace=wrap;html=1;sketch=1;hachureGap=4;jiggle=2;curveFitting=1;fontFamily=Ma Shan Zheng;fontSource=https%3A%2F%2Ffonts.googleapis.com%2Fcss%3Ffamily%3DMa%2BShan%2BZheng;fontSize=20;container=0;fillColor=#d5e8d4;strokeColor=#82b366;" parent="nUT3khsGeMdMuA17AA8O-153" vertex="1">
          <mxGeometry x="302" y="429" width="71" height="47" as="geometry" />
        </mxCell>
        <mxCell id="nUT3khsGeMdMuA17AA8O-207" value="" style="rounded=0;whiteSpace=wrap;html=1;sketch=1;hachureGap=4;jiggle=2;curveFitting=1;fontFamily=Ma Shan Zheng;fontSource=https%3A%2F%2Ffonts.googleapis.com%2Fcss%3Ffamily%3DMa%2BShan%2BZheng;fontSize=20;container=0;fillColor=#d5e8d4;strokeColor=#82b366;" parent="nUT3khsGeMdMuA17AA8O-153" vertex="1">
          <mxGeometry x="373" y="429" width="97" height="47" as="geometry" />
        </mxCell>
        <mxCell id="nUT3khsGeMdMuA17AA8O-208" value="8" style="rounded=0;whiteSpace=wrap;html=1;sketch=1;hachureGap=4;jiggle=2;curveFitting=1;fontFamily=Ma Shan Zheng;fontSource=https%3A%2F%2Ffonts.googleapis.com%2Fcss%3Ffamily%3DMa%2BShan%2BZheng;fontSize=20;container=0;fillColor=#d5e8d4;strokeColor=#82b366;" parent="nUT3khsGeMdMuA17AA8O-153" vertex="1">
          <mxGeometry x="470" y="429" width="61" height="47" as="geometry" />
        </mxCell>
        <mxCell id="nUT3khsGeMdMuA17AA8O-209" value="" style="rounded=0;whiteSpace=wrap;html=1;sketch=1;hachureGap=4;jiggle=2;curveFitting=1;fontFamily=Ma Shan Zheng;fontSource=https%3A%2F%2Ffonts.googleapis.com%2Fcss%3Ffamily%3DMa%2BShan%2BZheng;fontSize=20;container=0;fillColor=#d5e8d4;strokeColor=#82b366;" parent="nUT3khsGeMdMuA17AA8O-153" vertex="1">
          <mxGeometry x="2" y="477" width="158" height="47" as="geometry" />
        </mxCell>
        <mxCell id="nUT3khsGeMdMuA17AA8O-210" value="" style="rounded=0;whiteSpace=wrap;html=1;sketch=1;hachureGap=4;jiggle=2;curveFitting=1;fontFamily=Ma Shan Zheng;fontSource=https%3A%2F%2Ffonts.googleapis.com%2Fcss%3Ffamily%3DMa%2BShan%2BZheng;fontSize=20;container=0;fillColor=#d5e8d4;strokeColor=#82b366;" parent="nUT3khsGeMdMuA17AA8O-153" vertex="1">
          <mxGeometry x="161" y="477" width="71" height="47" as="geometry" />
        </mxCell>
        <mxCell id="nUT3khsGeMdMuA17AA8O-211" value="" style="rounded=0;whiteSpace=wrap;html=1;sketch=1;hachureGap=4;jiggle=2;curveFitting=1;fontFamily=Ma Shan Zheng;fontSource=https%3A%2F%2Ffonts.googleapis.com%2Fcss%3Ffamily%3DMa%2BShan%2BZheng;fontSize=20;container=0;fillColor=#d5e8d4;strokeColor=#82b366;" parent="nUT3khsGeMdMuA17AA8O-153" vertex="1">
          <mxGeometry x="232" y="477" width="71" height="47" as="geometry" />
        </mxCell>
        <mxCell id="nUT3khsGeMdMuA17AA8O-212" value="" style="rounded=0;whiteSpace=wrap;html=1;sketch=1;hachureGap=4;jiggle=2;curveFitting=1;fontFamily=Ma Shan Zheng;fontSource=https%3A%2F%2Ffonts.googleapis.com%2Fcss%3Ffamily%3DMa%2BShan%2BZheng;fontSize=20;container=0;fillColor=#d5e8d4;strokeColor=#82b366;" parent="nUT3khsGeMdMuA17AA8O-153" vertex="1">
          <mxGeometry x="303" y="477" width="71" height="47" as="geometry" />
        </mxCell>
        <mxCell id="nUT3khsGeMdMuA17AA8O-213" value="" style="rounded=0;whiteSpace=wrap;html=1;sketch=1;hachureGap=4;jiggle=2;curveFitting=1;fontFamily=Ma Shan Zheng;fontSource=https%3A%2F%2Ffonts.googleapis.com%2Fcss%3Ffamily%3DMa%2BShan%2BZheng;fontSize=20;container=0;fillColor=#d5e8d4;strokeColor=#82b366;" parent="nUT3khsGeMdMuA17AA8O-153" vertex="1">
          <mxGeometry x="374" y="477" width="97" height="47" as="geometry" />
        </mxCell>
        <mxCell id="nUT3khsGeMdMuA17AA8O-214" value="9" style="rounded=0;whiteSpace=wrap;html=1;sketch=1;hachureGap=4;jiggle=2;curveFitting=1;fontFamily=Ma Shan Zheng;fontSource=https%3A%2F%2Ffonts.googleapis.com%2Fcss%3Ffamily%3DMa%2BShan%2BZheng;fontSize=20;container=0;fillColor=#d5e8d4;strokeColor=#82b366;" parent="nUT3khsGeMdMuA17AA8O-153" vertex="1">
          <mxGeometry x="471" y="477" width="61" height="47" as="geometry" />
        </mxCell>
        <mxCell id="nUT3khsGeMdMuA17AA8O-215" value="" style="rounded=0;whiteSpace=wrap;html=1;sketch=1;hachureGap=4;jiggle=2;curveFitting=1;fontFamily=Ma Shan Zheng;fontSource=https%3A%2F%2Ffonts.googleapis.com%2Fcss%3Ffamily%3DMa%2BShan%2BZheng;fontSize=20;container=0;fillColor=#d5e8d4;strokeColor=#82b366;" parent="nUT3khsGeMdMuA17AA8O-153" vertex="1">
          <mxGeometry x="2" y="524" width="158" height="47" as="geometry" />
        </mxCell>
        <mxCell id="nUT3khsGeMdMuA17AA8O-216" value="" style="rounded=0;whiteSpace=wrap;html=1;sketch=1;hachureGap=4;jiggle=2;curveFitting=1;fontFamily=Ma Shan Zheng;fontSource=https%3A%2F%2Ffonts.googleapis.com%2Fcss%3Ffamily%3DMa%2BShan%2BZheng;fontSize=20;container=0;fillColor=#d5e8d4;strokeColor=#82b366;" parent="nUT3khsGeMdMuA17AA8O-153" vertex="1">
          <mxGeometry x="161" y="524" width="71" height="47" as="geometry" />
        </mxCell>
        <mxCell id="nUT3khsGeMdMuA17AA8O-217" value="" style="rounded=0;whiteSpace=wrap;html=1;sketch=1;hachureGap=4;jiggle=2;curveFitting=1;fontFamily=Ma Shan Zheng;fontSource=https%3A%2F%2Ffonts.googleapis.com%2Fcss%3Ffamily%3DMa%2BShan%2BZheng;fontSize=20;container=0;fillColor=#d5e8d4;strokeColor=#82b366;" parent="nUT3khsGeMdMuA17AA8O-153" vertex="1">
          <mxGeometry x="232" y="524" width="71" height="47" as="geometry" />
        </mxCell>
        <mxCell id="nUT3khsGeMdMuA17AA8O-218" value="" style="rounded=0;whiteSpace=wrap;html=1;sketch=1;hachureGap=4;jiggle=2;curveFitting=1;fontFamily=Ma Shan Zheng;fontSource=https%3A%2F%2Ffonts.googleapis.com%2Fcss%3Ffamily%3DMa%2BShan%2BZheng;fontSize=20;container=0;fillColor=#d5e8d4;strokeColor=#82b366;" parent="nUT3khsGeMdMuA17AA8O-153" vertex="1">
          <mxGeometry x="303" y="524" width="71" height="47" as="geometry" />
        </mxCell>
        <mxCell id="nUT3khsGeMdMuA17AA8O-219" value="" style="rounded=0;whiteSpace=wrap;html=1;sketch=1;hachureGap=4;jiggle=2;curveFitting=1;fontFamily=Ma Shan Zheng;fontSource=https%3A%2F%2Ffonts.googleapis.com%2Fcss%3Ffamily%3DMa%2BShan%2BZheng;fontSize=20;container=0;fillColor=#d5e8d4;strokeColor=#82b366;" parent="nUT3khsGeMdMuA17AA8O-153" vertex="1">
          <mxGeometry x="374" y="524" width="97" height="47" as="geometry" />
        </mxCell>
        <mxCell id="nUT3khsGeMdMuA17AA8O-220" value="10" style="rounded=0;whiteSpace=wrap;html=1;sketch=1;hachureGap=4;jiggle=2;curveFitting=1;fontFamily=Ma Shan Zheng;fontSource=https%3A%2F%2Ffonts.googleapis.com%2Fcss%3Ffamily%3DMa%2BShan%2BZheng;fontSize=20;container=0;fillColor=#d5e8d4;strokeColor=#82b366;" parent="nUT3khsGeMdMuA17AA8O-153" vertex="1">
          <mxGeometry x="471" y="524" width="61" height="47" as="geometry" />
        </mxCell>
        <mxCell id="nUT3khsGeMdMuA17AA8O-221" value="" style="rounded=0;whiteSpace=wrap;html=1;sketch=1;hachureGap=4;jiggle=2;curveFitting=1;fontFamily=Ma Shan Zheng;fontSource=https%3A%2F%2Ffonts.googleapis.com%2Fcss%3Ffamily%3DMa%2BShan%2BZheng;fontSize=20;container=0;fillColor=#f5f5f5;fontColor=#333333;strokeColor=#666666;" parent="nUT3khsGeMdMuA17AA8O-153" vertex="1">
          <mxGeometry y="573" width="158" height="47" as="geometry" />
        </mxCell>
        <mxCell id="nUT3khsGeMdMuA17AA8O-222" value="" style="rounded=0;whiteSpace=wrap;html=1;sketch=1;hachureGap=4;jiggle=2;curveFitting=1;fontFamily=Ma Shan Zheng;fontSource=https%3A%2F%2Ffonts.googleapis.com%2Fcss%3Ffamily%3DMa%2BShan%2BZheng;fontSize=20;container=0;fillColor=#f5f5f5;fontColor=#333333;strokeColor=#666666;" parent="nUT3khsGeMdMuA17AA8O-153" vertex="1">
          <mxGeometry x="159" y="573" width="71" height="47" as="geometry" />
        </mxCell>
        <mxCell id="nUT3khsGeMdMuA17AA8O-223" value="" style="rounded=0;whiteSpace=wrap;html=1;sketch=1;hachureGap=4;jiggle=2;curveFitting=1;fontFamily=Ma Shan Zheng;fontSource=https%3A%2F%2Ffonts.googleapis.com%2Fcss%3Ffamily%3DMa%2BShan%2BZheng;fontSize=20;container=0;fillColor=#f5f5f5;fontColor=#333333;strokeColor=#666666;" parent="nUT3khsGeMdMuA17AA8O-153" vertex="1">
          <mxGeometry x="230" y="573" width="71" height="47" as="geometry" />
        </mxCell>
        <mxCell id="nUT3khsGeMdMuA17AA8O-224" value="" style="rounded=0;whiteSpace=wrap;html=1;sketch=1;hachureGap=4;jiggle=2;curveFitting=1;fontFamily=Ma Shan Zheng;fontSource=https%3A%2F%2Ffonts.googleapis.com%2Fcss%3Ffamily%3DMa%2BShan%2BZheng;fontSize=20;container=0;fillColor=#f5f5f5;fontColor=#333333;strokeColor=#666666;" parent="nUT3khsGeMdMuA17AA8O-153" vertex="1">
          <mxGeometry x="301" y="573" width="71" height="47" as="geometry" />
        </mxCell>
        <mxCell id="nUT3khsGeMdMuA17AA8O-225" value="" style="rounded=0;whiteSpace=wrap;html=1;sketch=1;hachureGap=4;jiggle=2;curveFitting=1;fontFamily=Ma Shan Zheng;fontSource=https%3A%2F%2Ffonts.googleapis.com%2Fcss%3Ffamily%3DMa%2BShan%2BZheng;fontSize=20;container=0;fillColor=#f5f5f5;fontColor=#333333;strokeColor=#666666;" parent="nUT3khsGeMdMuA17AA8O-153" vertex="1">
          <mxGeometry x="372" y="573" width="97" height="47" as="geometry" />
        </mxCell>
        <mxCell id="nUT3khsGeMdMuA17AA8O-226" value="11" style="rounded=0;whiteSpace=wrap;html=1;sketch=1;hachureGap=4;jiggle=2;curveFitting=1;fontFamily=Ma Shan Zheng;fontSource=https%3A%2F%2Ffonts.googleapis.com%2Fcss%3Ffamily%3DMa%2BShan%2BZheng;fontSize=20;container=0;fillColor=#f5f5f5;fontColor=#333333;strokeColor=#666666;" parent="nUT3khsGeMdMuA17AA8O-153" vertex="1">
          <mxGeometry x="469" y="573" width="61" height="47" as="geometry" />
        </mxCell>
        <mxCell id="nUT3khsGeMdMuA17AA8O-227" value="" style="rounded=0;whiteSpace=wrap;html=1;sketch=1;hachureGap=4;jiggle=2;curveFitting=1;fontFamily=Ma Shan Zheng;fontSource=https%3A%2F%2Ffonts.googleapis.com%2Fcss%3Ffamily%3DMa%2BShan%2BZheng;fontSize=20;container=0;fillColor=#f5f5f5;fontColor=#333333;strokeColor=#666666;" parent="nUT3khsGeMdMuA17AA8O-152" vertex="1">
          <mxGeometry y="620" width="158" height="47" as="geometry" />
        </mxCell>
        <mxCell id="nUT3khsGeMdMuA17AA8O-228" value="" style="rounded=0;whiteSpace=wrap;html=1;sketch=1;hachureGap=4;jiggle=2;curveFitting=1;fontFamily=Ma Shan Zheng;fontSource=https%3A%2F%2Ffonts.googleapis.com%2Fcss%3Ffamily%3DMa%2BShan%2BZheng;fontSize=20;container=0;fillColor=#f5f5f5;fontColor=#333333;strokeColor=#666666;" parent="nUT3khsGeMdMuA17AA8O-152" vertex="1">
          <mxGeometry x="159" y="620" width="71" height="47" as="geometry" />
        </mxCell>
        <mxCell id="nUT3khsGeMdMuA17AA8O-229" value="" style="rounded=0;whiteSpace=wrap;html=1;sketch=1;hachureGap=4;jiggle=2;curveFitting=1;fontFamily=Ma Shan Zheng;fontSource=https%3A%2F%2Ffonts.googleapis.com%2Fcss%3Ffamily%3DMa%2BShan%2BZheng;fontSize=20;container=0;fillColor=#f5f5f5;fontColor=#333333;strokeColor=#666666;" parent="nUT3khsGeMdMuA17AA8O-152" vertex="1">
          <mxGeometry x="230" y="620" width="71" height="47" as="geometry" />
        </mxCell>
        <mxCell id="nUT3khsGeMdMuA17AA8O-230" value="" style="rounded=0;whiteSpace=wrap;html=1;sketch=1;hachureGap=4;jiggle=2;curveFitting=1;fontFamily=Ma Shan Zheng;fontSource=https%3A%2F%2Ffonts.googleapis.com%2Fcss%3Ffamily%3DMa%2BShan%2BZheng;fontSize=20;container=0;fillColor=#f5f5f5;fontColor=#333333;strokeColor=#666666;" parent="nUT3khsGeMdMuA17AA8O-152" vertex="1">
          <mxGeometry x="301" y="620" width="71" height="47" as="geometry" />
        </mxCell>
        <mxCell id="nUT3khsGeMdMuA17AA8O-231" value="" style="rounded=0;whiteSpace=wrap;html=1;sketch=1;hachureGap=4;jiggle=2;curveFitting=1;fontFamily=Ma Shan Zheng;fontSource=https%3A%2F%2Ffonts.googleapis.com%2Fcss%3Ffamily%3DMa%2BShan%2BZheng;fontSize=20;container=0;fillColor=#f5f5f5;fontColor=#333333;strokeColor=#666666;" parent="nUT3khsGeMdMuA17AA8O-152" vertex="1">
          <mxGeometry x="372" y="620" width="97" height="47" as="geometry" />
        </mxCell>
        <mxCell id="nUT3khsGeMdMuA17AA8O-232" value="12" style="rounded=0;whiteSpace=wrap;html=1;sketch=1;hachureGap=4;jiggle=2;curveFitting=1;fontFamily=Ma Shan Zheng;fontSource=https%3A%2F%2Ffonts.googleapis.com%2Fcss%3Ffamily%3DMa%2BShan%2BZheng;fontSize=20;container=0;fillColor=#f5f5f5;fontColor=#333333;strokeColor=#666666;" parent="nUT3khsGeMdMuA17AA8O-152" vertex="1">
          <mxGeometry x="469" y="620" width="61" height="47" as="geometry" />
        </mxCell>
        <mxCell id="nUT3khsGeMdMuA17AA8O-233" value="" style="rounded=0;whiteSpace=wrap;html=1;sketch=1;hachureGap=4;jiggle=2;curveFitting=1;fontFamily=Ma Shan Zheng;fontSource=https%3A%2F%2Ffonts.googleapis.com%2Fcss%3Ffamily%3DMa%2BShan%2BZheng;fontSize=20;container=0;fillColor=#f5f5f5;fontColor=#333333;strokeColor=#666666;" parent="nUT3khsGeMdMuA17AA8O-152" vertex="1">
          <mxGeometry y="667" width="158" height="47" as="geometry" />
        </mxCell>
        <mxCell id="nUT3khsGeMdMuA17AA8O-234" value="" style="rounded=0;whiteSpace=wrap;html=1;sketch=1;hachureGap=4;jiggle=2;curveFitting=1;fontFamily=Ma Shan Zheng;fontSource=https%3A%2F%2Ffonts.googleapis.com%2Fcss%3Ffamily%3DMa%2BShan%2BZheng;fontSize=20;container=0;fillColor=#f5f5f5;fontColor=#333333;strokeColor=#666666;" parent="nUT3khsGeMdMuA17AA8O-152" vertex="1">
          <mxGeometry x="159" y="667" width="71" height="47" as="geometry" />
        </mxCell>
        <mxCell id="nUT3khsGeMdMuA17AA8O-235" value="" style="rounded=0;whiteSpace=wrap;html=1;sketch=1;hachureGap=4;jiggle=2;curveFitting=1;fontFamily=Ma Shan Zheng;fontSource=https%3A%2F%2Ffonts.googleapis.com%2Fcss%3Ffamily%3DMa%2BShan%2BZheng;fontSize=20;container=0;fillColor=#f5f5f5;fontColor=#333333;strokeColor=#666666;" parent="nUT3khsGeMdMuA17AA8O-152" vertex="1">
          <mxGeometry x="230" y="667" width="71" height="47" as="geometry" />
        </mxCell>
        <mxCell id="nUT3khsGeMdMuA17AA8O-236" value="" style="rounded=0;whiteSpace=wrap;html=1;sketch=1;hachureGap=4;jiggle=2;curveFitting=1;fontFamily=Ma Shan Zheng;fontSource=https%3A%2F%2Ffonts.googleapis.com%2Fcss%3Ffamily%3DMa%2BShan%2BZheng;fontSize=20;container=0;fillColor=#f5f5f5;fontColor=#333333;strokeColor=#666666;" parent="nUT3khsGeMdMuA17AA8O-152" vertex="1">
          <mxGeometry x="301" y="667" width="71" height="47" as="geometry" />
        </mxCell>
        <mxCell id="nUT3khsGeMdMuA17AA8O-237" value="" style="rounded=0;whiteSpace=wrap;html=1;sketch=1;hachureGap=4;jiggle=2;curveFitting=1;fontFamily=Ma Shan Zheng;fontSource=https%3A%2F%2Ffonts.googleapis.com%2Fcss%3Ffamily%3DMa%2BShan%2BZheng;fontSize=20;container=0;fillColor=#f5f5f5;fontColor=#333333;strokeColor=#666666;" parent="nUT3khsGeMdMuA17AA8O-152" vertex="1">
          <mxGeometry x="372" y="667" width="97" height="47" as="geometry" />
        </mxCell>
        <mxCell id="nUT3khsGeMdMuA17AA8O-238" value="13" style="rounded=0;whiteSpace=wrap;html=1;sketch=1;hachureGap=4;jiggle=2;curveFitting=1;fontFamily=Ma Shan Zheng;fontSource=https%3A%2F%2Ffonts.googleapis.com%2Fcss%3Ffamily%3DMa%2BShan%2BZheng;fontSize=20;container=0;fillColor=#f5f5f5;fontColor=#333333;strokeColor=#666666;" parent="nUT3khsGeMdMuA17AA8O-152" vertex="1">
          <mxGeometry x="469" y="667" width="61" height="47" as="geometry" />
        </mxCell>
        <mxCell id="nUT3khsGeMdMuA17AA8O-239" value="" style="rounded=0;whiteSpace=wrap;html=1;sketch=1;hachureGap=4;jiggle=2;curveFitting=1;fontFamily=Ma Shan Zheng;fontSource=https%3A%2F%2Ffonts.googleapis.com%2Fcss%3Ffamily%3DMa%2BShan%2BZheng;fontSize=20;container=0;fillColor=#f5f5f5;fontColor=#333333;strokeColor=#666666;" parent="nUT3khsGeMdMuA17AA8O-152" vertex="1">
          <mxGeometry y="714" width="158" height="47" as="geometry" />
        </mxCell>
        <mxCell id="nUT3khsGeMdMuA17AA8O-240" value="" style="rounded=0;whiteSpace=wrap;html=1;sketch=1;hachureGap=4;jiggle=2;curveFitting=1;fontFamily=Ma Shan Zheng;fontSource=https%3A%2F%2Ffonts.googleapis.com%2Fcss%3Ffamily%3DMa%2BShan%2BZheng;fontSize=20;container=0;fillColor=#f5f5f5;fontColor=#333333;strokeColor=#666666;" parent="nUT3khsGeMdMuA17AA8O-152" vertex="1">
          <mxGeometry x="159" y="714" width="71" height="47" as="geometry" />
        </mxCell>
        <mxCell id="nUT3khsGeMdMuA17AA8O-241" value="" style="rounded=0;whiteSpace=wrap;html=1;sketch=1;hachureGap=4;jiggle=2;curveFitting=1;fontFamily=Ma Shan Zheng;fontSource=https%3A%2F%2Ffonts.googleapis.com%2Fcss%3Ffamily%3DMa%2BShan%2BZheng;fontSize=20;container=0;fillColor=#f5f5f5;fontColor=#333333;strokeColor=#666666;" parent="nUT3khsGeMdMuA17AA8O-152" vertex="1">
          <mxGeometry x="230" y="714" width="71" height="47" as="geometry" />
        </mxCell>
        <mxCell id="nUT3khsGeMdMuA17AA8O-242" value="" style="rounded=0;whiteSpace=wrap;html=1;sketch=1;hachureGap=4;jiggle=2;curveFitting=1;fontFamily=Ma Shan Zheng;fontSource=https%3A%2F%2Ffonts.googleapis.com%2Fcss%3Ffamily%3DMa%2BShan%2BZheng;fontSize=20;container=0;fillColor=#f5f5f5;fontColor=#333333;strokeColor=#666666;" parent="nUT3khsGeMdMuA17AA8O-152" vertex="1">
          <mxGeometry x="301" y="714" width="71" height="47" as="geometry" />
        </mxCell>
        <mxCell id="nUT3khsGeMdMuA17AA8O-243" value="" style="rounded=0;whiteSpace=wrap;html=1;sketch=1;hachureGap=4;jiggle=2;curveFitting=1;fontFamily=Ma Shan Zheng;fontSource=https%3A%2F%2Ffonts.googleapis.com%2Fcss%3Ffamily%3DMa%2BShan%2BZheng;fontSize=20;container=0;fillColor=#f5f5f5;fontColor=#333333;strokeColor=#666666;" parent="nUT3khsGeMdMuA17AA8O-152" vertex="1">
          <mxGeometry x="372" y="714" width="97" height="47" as="geometry" />
        </mxCell>
        <mxCell id="nUT3khsGeMdMuA17AA8O-244" value="14" style="rounded=0;whiteSpace=wrap;html=1;sketch=1;hachureGap=4;jiggle=2;curveFitting=1;fontFamily=Ma Shan Zheng;fontSource=https%3A%2F%2Ffonts.googleapis.com%2Fcss%3Ffamily%3DMa%2BShan%2BZheng;fontSize=20;container=0;fillColor=#f5f5f5;fontColor=#333333;strokeColor=#666666;" parent="nUT3khsGeMdMuA17AA8O-152" vertex="1">
          <mxGeometry x="469" y="714" width="61" height="47" as="geometry" />
        </mxCell>
        <mxCell id="nUT3khsGeMdMuA17AA8O-245" value="" style="rounded=0;whiteSpace=wrap;html=1;sketch=1;hachureGap=4;jiggle=2;curveFitting=1;fontFamily=Ma Shan Zheng;fontSource=https%3A%2F%2Ffonts.googleapis.com%2Fcss%3Ffamily%3DMa%2BShan%2BZheng;fontSize=20;container=0;fillColor=#f5f5f5;fontColor=#333333;strokeColor=#666666;" parent="nUT3khsGeMdMuA17AA8O-152" vertex="1">
          <mxGeometry y="763" width="158" height="47" as="geometry" />
        </mxCell>
        <mxCell id="nUT3khsGeMdMuA17AA8O-246" value="" style="rounded=0;whiteSpace=wrap;html=1;sketch=1;hachureGap=4;jiggle=2;curveFitting=1;fontFamily=Ma Shan Zheng;fontSource=https%3A%2F%2Ffonts.googleapis.com%2Fcss%3Ffamily%3DMa%2BShan%2BZheng;fontSize=20;container=0;fillColor=#f5f5f5;fontColor=#333333;strokeColor=#666666;" parent="nUT3khsGeMdMuA17AA8O-152" vertex="1">
          <mxGeometry x="159" y="763" width="71" height="47" as="geometry" />
        </mxCell>
        <mxCell id="nUT3khsGeMdMuA17AA8O-247" value="" style="rounded=0;whiteSpace=wrap;html=1;sketch=1;hachureGap=4;jiggle=2;curveFitting=1;fontFamily=Ma Shan Zheng;fontSource=https%3A%2F%2Ffonts.googleapis.com%2Fcss%3Ffamily%3DMa%2BShan%2BZheng;fontSize=20;container=0;fillColor=#f5f5f5;fontColor=#333333;strokeColor=#666666;" parent="nUT3khsGeMdMuA17AA8O-152" vertex="1">
          <mxGeometry x="230" y="763" width="71" height="47" as="geometry" />
        </mxCell>
        <mxCell id="nUT3khsGeMdMuA17AA8O-248" value="" style="rounded=0;whiteSpace=wrap;html=1;sketch=1;hachureGap=4;jiggle=2;curveFitting=1;fontFamily=Ma Shan Zheng;fontSource=https%3A%2F%2Ffonts.googleapis.com%2Fcss%3Ffamily%3DMa%2BShan%2BZheng;fontSize=20;container=0;fillColor=#f5f5f5;fontColor=#333333;strokeColor=#666666;" parent="nUT3khsGeMdMuA17AA8O-152" vertex="1">
          <mxGeometry x="301" y="763" width="71" height="47" as="geometry" />
        </mxCell>
        <mxCell id="nUT3khsGeMdMuA17AA8O-249" value="" style="rounded=0;whiteSpace=wrap;html=1;sketch=1;hachureGap=4;jiggle=2;curveFitting=1;fontFamily=Ma Shan Zheng;fontSource=https%3A%2F%2Ffonts.googleapis.com%2Fcss%3Ffamily%3DMa%2BShan%2BZheng;fontSize=20;container=0;fillColor=#f5f5f5;fontColor=#333333;strokeColor=#666666;" parent="nUT3khsGeMdMuA17AA8O-152" vertex="1">
          <mxGeometry x="372" y="763" width="97" height="47" as="geometry" />
        </mxCell>
        <mxCell id="nUT3khsGeMdMuA17AA8O-250" value="15" style="rounded=0;whiteSpace=wrap;html=1;sketch=1;hachureGap=4;jiggle=2;curveFitting=1;fontFamily=Ma Shan Zheng;fontSource=https%3A%2F%2Ffonts.googleapis.com%2Fcss%3Ffamily%3DMa%2BShan%2BZheng;fontSize=20;container=0;fillColor=#f5f5f5;fontColor=#333333;strokeColor=#666666;" parent="nUT3khsGeMdMuA17AA8O-152" vertex="1">
          <mxGeometry x="469" y="763" width="61" height="47" as="geometry" />
        </mxCell>
        <mxCell id="nUT3khsGeMdMuA17AA8O-251" value="" style="rounded=0;whiteSpace=wrap;html=1;sketch=1;hachureGap=4;jiggle=2;curveFitting=1;fontFamily=Ma Shan Zheng;fontSource=https%3A%2F%2Ffonts.googleapis.com%2Fcss%3Ffamily%3DMa%2BShan%2BZheng;fontSize=20;container=0;fillColor=#f5f5f5;fontColor=#333333;strokeColor=#666666;" parent="nUT3khsGeMdMuA17AA8O-152" vertex="1">
          <mxGeometry y="810" width="158" height="47" as="geometry" />
        </mxCell>
        <mxCell id="nUT3khsGeMdMuA17AA8O-252" value="" style="rounded=0;whiteSpace=wrap;html=1;sketch=1;hachureGap=4;jiggle=2;curveFitting=1;fontFamily=Ma Shan Zheng;fontSource=https%3A%2F%2Ffonts.googleapis.com%2Fcss%3Ffamily%3DMa%2BShan%2BZheng;fontSize=20;container=0;fillColor=#f5f5f5;fontColor=#333333;strokeColor=#666666;" parent="nUT3khsGeMdMuA17AA8O-152" vertex="1">
          <mxGeometry x="159" y="810" width="71" height="47" as="geometry" />
        </mxCell>
        <mxCell id="nUT3khsGeMdMuA17AA8O-253" value="" style="rounded=0;whiteSpace=wrap;html=1;sketch=1;hachureGap=4;jiggle=2;curveFitting=1;fontFamily=Ma Shan Zheng;fontSource=https%3A%2F%2Ffonts.googleapis.com%2Fcss%3Ffamily%3DMa%2BShan%2BZheng;fontSize=20;container=0;fillColor=#f5f5f5;fontColor=#333333;strokeColor=#666666;" parent="nUT3khsGeMdMuA17AA8O-152" vertex="1">
          <mxGeometry x="230" y="810" width="71" height="47" as="geometry" />
        </mxCell>
        <mxCell id="nUT3khsGeMdMuA17AA8O-254" value="" style="rounded=0;whiteSpace=wrap;html=1;sketch=1;hachureGap=4;jiggle=2;curveFitting=1;fontFamily=Ma Shan Zheng;fontSource=https%3A%2F%2Ffonts.googleapis.com%2Fcss%3Ffamily%3DMa%2BShan%2BZheng;fontSize=20;container=0;fillColor=#f5f5f5;fontColor=#333333;strokeColor=#666666;" parent="nUT3khsGeMdMuA17AA8O-152" vertex="1">
          <mxGeometry x="301" y="810" width="71" height="47" as="geometry" />
        </mxCell>
        <mxCell id="nUT3khsGeMdMuA17AA8O-255" value="" style="rounded=0;whiteSpace=wrap;html=1;sketch=1;hachureGap=4;jiggle=2;curveFitting=1;fontFamily=Ma Shan Zheng;fontSource=https%3A%2F%2Ffonts.googleapis.com%2Fcss%3Ffamily%3DMa%2BShan%2BZheng;fontSize=20;container=0;fillColor=#f5f5f5;fontColor=#333333;strokeColor=#666666;" parent="nUT3khsGeMdMuA17AA8O-152" vertex="1">
          <mxGeometry x="372" y="810" width="97" height="47" as="geometry" />
        </mxCell>
        <mxCell id="nUT3khsGeMdMuA17AA8O-256" value="16" style="rounded=0;whiteSpace=wrap;html=1;sketch=1;hachureGap=4;jiggle=2;curveFitting=1;fontFamily=Ma Shan Zheng;fontSource=https%3A%2F%2Ffonts.googleapis.com%2Fcss%3Ffamily%3DMa%2BShan%2BZheng;fontSize=20;container=0;fillColor=#f5f5f5;fontColor=#333333;strokeColor=#666666;" parent="nUT3khsGeMdMuA17AA8O-152" vertex="1">
          <mxGeometry x="469" y="810" width="61" height="47" as="geometry" />
        </mxCell>
        <mxCell id="nUT3khsGeMdMuA17AA8O-257" value="" style="rounded=0;whiteSpace=wrap;html=1;sketch=1;hachureGap=4;jiggle=2;curveFitting=1;fontFamily=Ma Shan Zheng;fontSource=https%3A%2F%2Ffonts.googleapis.com%2Fcss%3Ffamily%3DMa%2BShan%2BZheng;fontSize=20;container=0;fillColor=#f5f5f5;fontColor=#333333;strokeColor=#666666;" parent="nUT3khsGeMdMuA17AA8O-152" vertex="1">
          <mxGeometry y="857" width="158" height="47" as="geometry" />
        </mxCell>
        <mxCell id="nUT3khsGeMdMuA17AA8O-258" value="" style="rounded=0;whiteSpace=wrap;html=1;sketch=1;hachureGap=4;jiggle=2;curveFitting=1;fontFamily=Ma Shan Zheng;fontSource=https%3A%2F%2Ffonts.googleapis.com%2Fcss%3Ffamily%3DMa%2BShan%2BZheng;fontSize=20;container=0;fillColor=#f5f5f5;fontColor=#333333;strokeColor=#666666;" parent="nUT3khsGeMdMuA17AA8O-152" vertex="1">
          <mxGeometry x="159" y="857" width="71" height="47" as="geometry" />
        </mxCell>
        <mxCell id="nUT3khsGeMdMuA17AA8O-259" value="" style="rounded=0;whiteSpace=wrap;html=1;sketch=1;hachureGap=4;jiggle=2;curveFitting=1;fontFamily=Ma Shan Zheng;fontSource=https%3A%2F%2Ffonts.googleapis.com%2Fcss%3Ffamily%3DMa%2BShan%2BZheng;fontSize=20;container=0;fillColor=#f5f5f5;fontColor=#333333;strokeColor=#666666;" parent="nUT3khsGeMdMuA17AA8O-152" vertex="1">
          <mxGeometry x="230" y="857" width="71" height="47" as="geometry" />
        </mxCell>
        <mxCell id="nUT3khsGeMdMuA17AA8O-260" value="" style="rounded=0;whiteSpace=wrap;html=1;sketch=1;hachureGap=4;jiggle=2;curveFitting=1;fontFamily=Ma Shan Zheng;fontSource=https%3A%2F%2Ffonts.googleapis.com%2Fcss%3Ffamily%3DMa%2BShan%2BZheng;fontSize=20;container=0;fillColor=#f5f5f5;fontColor=#333333;strokeColor=#666666;" parent="nUT3khsGeMdMuA17AA8O-152" vertex="1">
          <mxGeometry x="301" y="857" width="71" height="47" as="geometry" />
        </mxCell>
        <mxCell id="nUT3khsGeMdMuA17AA8O-261" value="" style="rounded=0;whiteSpace=wrap;html=1;sketch=1;hachureGap=4;jiggle=2;curveFitting=1;fontFamily=Ma Shan Zheng;fontSource=https%3A%2F%2Ffonts.googleapis.com%2Fcss%3Ffamily%3DMa%2BShan%2BZheng;fontSize=20;container=0;fillColor=#f5f5f5;fontColor=#333333;strokeColor=#666666;" parent="nUT3khsGeMdMuA17AA8O-152" vertex="1">
          <mxGeometry x="372" y="857" width="97" height="47" as="geometry" />
        </mxCell>
        <mxCell id="nUT3khsGeMdMuA17AA8O-262" value="17" style="rounded=0;whiteSpace=wrap;html=1;sketch=1;hachureGap=4;jiggle=2;curveFitting=1;fontFamily=Ma Shan Zheng;fontSource=https%3A%2F%2Ffonts.googleapis.com%2Fcss%3Ffamily%3DMa%2BShan%2BZheng;fontSize=20;container=0;fillColor=#f5f5f5;fontColor=#333333;strokeColor=#666666;" parent="nUT3khsGeMdMuA17AA8O-152" vertex="1">
          <mxGeometry x="469" y="857" width="61" height="47" as="geometry" />
        </mxCell>
        <mxCell id="nUT3khsGeMdMuA17AA8O-263" value="" style="rounded=0;whiteSpace=wrap;html=1;sketch=1;hachureGap=4;jiggle=2;curveFitting=1;fontFamily=Ma Shan Zheng;fontSource=https%3A%2F%2Ffonts.googleapis.com%2Fcss%3Ffamily%3DMa%2BShan%2BZheng;fontSize=20;container=0;fillColor=#f5f5f5;fontColor=#333333;strokeColor=#666666;" parent="nUT3khsGeMdMuA17AA8O-152" vertex="1">
          <mxGeometry y="904" width="158" height="47" as="geometry" />
        </mxCell>
        <mxCell id="nUT3khsGeMdMuA17AA8O-264" value="" style="rounded=0;whiteSpace=wrap;html=1;sketch=1;hachureGap=4;jiggle=2;curveFitting=1;fontFamily=Ma Shan Zheng;fontSource=https%3A%2F%2Ffonts.googleapis.com%2Fcss%3Ffamily%3DMa%2BShan%2BZheng;fontSize=20;container=0;fillColor=#f5f5f5;fontColor=#333333;strokeColor=#666666;" parent="nUT3khsGeMdMuA17AA8O-152" vertex="1">
          <mxGeometry x="159" y="904" width="71" height="47" as="geometry" />
        </mxCell>
        <mxCell id="nUT3khsGeMdMuA17AA8O-265" value="" style="rounded=0;whiteSpace=wrap;html=1;sketch=1;hachureGap=4;jiggle=2;curveFitting=1;fontFamily=Ma Shan Zheng;fontSource=https%3A%2F%2Ffonts.googleapis.com%2Fcss%3Ffamily%3DMa%2BShan%2BZheng;fontSize=20;container=0;fillColor=#f5f5f5;fontColor=#333333;strokeColor=#666666;" parent="nUT3khsGeMdMuA17AA8O-152" vertex="1">
          <mxGeometry x="230" y="904" width="71" height="47" as="geometry" />
        </mxCell>
        <mxCell id="nUT3khsGeMdMuA17AA8O-266" value="" style="rounded=0;whiteSpace=wrap;html=1;sketch=1;hachureGap=4;jiggle=2;curveFitting=1;fontFamily=Ma Shan Zheng;fontSource=https%3A%2F%2Ffonts.googleapis.com%2Fcss%3Ffamily%3DMa%2BShan%2BZheng;fontSize=20;container=0;fillColor=#f5f5f5;fontColor=#333333;strokeColor=#666666;" parent="nUT3khsGeMdMuA17AA8O-152" vertex="1">
          <mxGeometry x="301" y="904" width="71" height="47" as="geometry" />
        </mxCell>
        <mxCell id="nUT3khsGeMdMuA17AA8O-267" value="" style="rounded=0;whiteSpace=wrap;html=1;sketch=1;hachureGap=4;jiggle=2;curveFitting=1;fontFamily=Ma Shan Zheng;fontSource=https%3A%2F%2Ffonts.googleapis.com%2Fcss%3Ffamily%3DMa%2BShan%2BZheng;fontSize=20;container=0;fillColor=#f5f5f5;fontColor=#333333;strokeColor=#666666;" parent="nUT3khsGeMdMuA17AA8O-152" vertex="1">
          <mxGeometry x="372" y="904" width="97" height="47" as="geometry" />
        </mxCell>
        <mxCell id="nUT3khsGeMdMuA17AA8O-268" value="18" style="rounded=0;whiteSpace=wrap;html=1;sketch=1;hachureGap=4;jiggle=2;curveFitting=1;fontFamily=Ma Shan Zheng;fontSource=https%3A%2F%2Ffonts.googleapis.com%2Fcss%3Ffamily%3DMa%2BShan%2BZheng;fontSize=20;container=0;fillColor=#f5f5f5;fontColor=#333333;strokeColor=#666666;" parent="nUT3khsGeMdMuA17AA8O-152" vertex="1">
          <mxGeometry x="469" y="904" width="61" height="47" as="geometry" />
        </mxCell>
        <mxCell id="nUT3khsGeMdMuA17AA8O-269" value="" style="rounded=0;whiteSpace=wrap;html=1;sketch=1;hachureGap=4;jiggle=2;curveFitting=1;fontFamily=Ma Shan Zheng;fontSource=https%3A%2F%2Ffonts.googleapis.com%2Fcss%3Ffamily%3DMa%2BShan%2BZheng;fontSize=20;container=0;fillColor=#f5f5f5;fontColor=#333333;strokeColor=#666666;" parent="nUT3khsGeMdMuA17AA8O-152" vertex="1">
          <mxGeometry y="951" width="158" height="47" as="geometry" />
        </mxCell>
        <mxCell id="nUT3khsGeMdMuA17AA8O-270" value="" style="rounded=0;whiteSpace=wrap;html=1;sketch=1;hachureGap=4;jiggle=2;curveFitting=1;fontFamily=Ma Shan Zheng;fontSource=https%3A%2F%2Ffonts.googleapis.com%2Fcss%3Ffamily%3DMa%2BShan%2BZheng;fontSize=20;container=0;fillColor=#f5f5f5;fontColor=#333333;strokeColor=#666666;" parent="nUT3khsGeMdMuA17AA8O-152" vertex="1">
          <mxGeometry x="159" y="951" width="71" height="47" as="geometry" />
        </mxCell>
        <mxCell id="nUT3khsGeMdMuA17AA8O-271" value="" style="rounded=0;whiteSpace=wrap;html=1;sketch=1;hachureGap=4;jiggle=2;curveFitting=1;fontFamily=Ma Shan Zheng;fontSource=https%3A%2F%2Ffonts.googleapis.com%2Fcss%3Ffamily%3DMa%2BShan%2BZheng;fontSize=20;container=0;fillColor=#f5f5f5;fontColor=#333333;strokeColor=#666666;" parent="nUT3khsGeMdMuA17AA8O-152" vertex="1">
          <mxGeometry x="230" y="951" width="71" height="47" as="geometry" />
        </mxCell>
        <mxCell id="nUT3khsGeMdMuA17AA8O-272" value="" style="rounded=0;whiteSpace=wrap;html=1;sketch=1;hachureGap=4;jiggle=2;curveFitting=1;fontFamily=Ma Shan Zheng;fontSource=https%3A%2F%2Ffonts.googleapis.com%2Fcss%3Ffamily%3DMa%2BShan%2BZheng;fontSize=20;container=0;fillColor=#f5f5f5;fontColor=#333333;strokeColor=#666666;" parent="nUT3khsGeMdMuA17AA8O-152" vertex="1">
          <mxGeometry x="301" y="951" width="71" height="47" as="geometry" />
        </mxCell>
        <mxCell id="nUT3khsGeMdMuA17AA8O-273" value="" style="rounded=0;whiteSpace=wrap;html=1;sketch=1;hachureGap=4;jiggle=2;curveFitting=1;fontFamily=Ma Shan Zheng;fontSource=https%3A%2F%2Ffonts.googleapis.com%2Fcss%3Ffamily%3DMa%2BShan%2BZheng;fontSize=20;container=0;fillColor=#f5f5f5;fontColor=#333333;strokeColor=#666666;" parent="nUT3khsGeMdMuA17AA8O-152" vertex="1">
          <mxGeometry x="372" y="951" width="97" height="47" as="geometry" />
        </mxCell>
        <mxCell id="nUT3khsGeMdMuA17AA8O-274" value="19" style="rounded=0;whiteSpace=wrap;html=1;sketch=1;hachureGap=4;jiggle=2;curveFitting=1;fontFamily=Ma Shan Zheng;fontSource=https%3A%2F%2Ffonts.googleapis.com%2Fcss%3Ffamily%3DMa%2BShan%2BZheng;fontSize=20;container=0;fillColor=#f5f5f5;fontColor=#333333;strokeColor=#666666;" parent="nUT3khsGeMdMuA17AA8O-152" vertex="1">
          <mxGeometry x="469" y="951" width="61" height="47" as="geometry" />
        </mxCell>
        <mxCell id="nUT3khsGeMdMuA17AA8O-275" value="" style="rounded=0;whiteSpace=wrap;html=1;sketch=1;hachureGap=4;jiggle=2;curveFitting=1;fontFamily=Ma Shan Zheng;fontSource=https%3A%2F%2Ffonts.googleapis.com%2Fcss%3Ffamily%3DMa%2BShan%2BZheng;fontSize=20;container=0;fillColor=#f5f5f5;fontColor=#333333;strokeColor=#666666;" parent="nUT3khsGeMdMuA17AA8O-152" vertex="1">
          <mxGeometry y="998" width="158" height="47" as="geometry" />
        </mxCell>
        <mxCell id="nUT3khsGeMdMuA17AA8O-276" value="" style="rounded=0;whiteSpace=wrap;html=1;sketch=1;hachureGap=4;jiggle=2;curveFitting=1;fontFamily=Ma Shan Zheng;fontSource=https%3A%2F%2Ffonts.googleapis.com%2Fcss%3Ffamily%3DMa%2BShan%2BZheng;fontSize=20;container=0;fillColor=#f5f5f5;fontColor=#333333;strokeColor=#666666;" parent="nUT3khsGeMdMuA17AA8O-152" vertex="1">
          <mxGeometry x="159" y="998" width="71" height="47" as="geometry" />
        </mxCell>
        <mxCell id="nUT3khsGeMdMuA17AA8O-277" value="" style="rounded=0;whiteSpace=wrap;html=1;sketch=1;hachureGap=4;jiggle=2;curveFitting=1;fontFamily=Ma Shan Zheng;fontSource=https%3A%2F%2Ffonts.googleapis.com%2Fcss%3Ffamily%3DMa%2BShan%2BZheng;fontSize=20;container=0;fillColor=#f5f5f5;fontColor=#333333;strokeColor=#666666;" parent="nUT3khsGeMdMuA17AA8O-152" vertex="1">
          <mxGeometry x="230" y="998" width="71" height="47" as="geometry" />
        </mxCell>
        <mxCell id="nUT3khsGeMdMuA17AA8O-278" value="" style="rounded=0;whiteSpace=wrap;html=1;sketch=1;hachureGap=4;jiggle=2;curveFitting=1;fontFamily=Ma Shan Zheng;fontSource=https%3A%2F%2Ffonts.googleapis.com%2Fcss%3Ffamily%3DMa%2BShan%2BZheng;fontSize=20;container=0;fillColor=#f5f5f5;fontColor=#333333;strokeColor=#666666;" parent="nUT3khsGeMdMuA17AA8O-152" vertex="1">
          <mxGeometry x="301" y="998" width="71" height="47" as="geometry" />
        </mxCell>
        <mxCell id="nUT3khsGeMdMuA17AA8O-279" value="" style="rounded=0;whiteSpace=wrap;html=1;sketch=1;hachureGap=4;jiggle=2;curveFitting=1;fontFamily=Ma Shan Zheng;fontSource=https%3A%2F%2Ffonts.googleapis.com%2Fcss%3Ffamily%3DMa%2BShan%2BZheng;fontSize=20;container=0;fillColor=#f5f5f5;fontColor=#333333;strokeColor=#666666;" parent="nUT3khsGeMdMuA17AA8O-152" vertex="1">
          <mxGeometry x="372" y="998" width="97" height="47" as="geometry" />
        </mxCell>
        <mxCell id="nUT3khsGeMdMuA17AA8O-280" value="20" style="rounded=0;whiteSpace=wrap;html=1;sketch=1;hachureGap=4;jiggle=2;curveFitting=1;fontFamily=Ma Shan Zheng;fontSource=https%3A%2F%2Ffonts.googleapis.com%2Fcss%3Ffamily%3DMa%2BShan%2BZheng;fontSize=20;container=0;fillColor=#f5f5f5;fontColor=#333333;strokeColor=#666666;" parent="nUT3khsGeMdMuA17AA8O-152" vertex="1">
          <mxGeometry x="469" y="998" width="61" height="47" as="geometry" />
        </mxCell>
        <mxCell id="jX9Bk82n45_Kgwvwldcz-1" value="&lt;font data-font-src=&quot;https://fonts.googleapis.com/css?family=Architects+Daughter&quot;&gt;你好呀异兽三大兽山海经书奇怪色&lt;/font&gt;" style="text;strokeColor=none;align=center;fillColor=none;html=1;verticalAlign=middle;whiteSpace=wrap;rounded=0;fontFamily=Ma Shan Zheng;fontSource=https%3A%2F%2Ffonts.googleapis.com%2Fcss%3Ffamily%3DMa%2BShan%2BZheng;" vertex="1" parent="1">
          <mxGeometry x="497" y="550" width="263" height="53" as="geometry" />
        </mxCell>
      </root>
    </mxGraphModel>
  </diagram>
</mxfile>
